<svg version="1.1" id="Layer_1" xmlns="http://www.w3.org/2000/svg" xmlns:xlink="http://www.w3.org/1999/xlink" x="0px" y="0px"
	 width="100%" viewBox="0 0 800 449" enable-background="new 0 0 800 449" xml:space="preserve">
<path fill="#0b0418" opacity="1.000000" stroke="none" 
	d="
M593.000000,450.000000 
	C395.333344,450.000000 198.166672,450.000000 1.000000,450.000000 
	C1.000000,300.333344 1.000000,150.666672 1.000000,1.000000 
	C267.666656,1.000000 534.333313,1.000000 801.000000,1.000000 
	C801.000000,150.666672 801.000000,300.333344 801.000000,450.000000 
	C731.833313,450.000000 662.666687,450.000000 593.000000,450.000000 
M222.498505,372.172607 
	C222.673950,372.422852 222.849396,372.673096 223.956863,372.990814 
	C232.752777,372.995819 241.548813,373.032684 250.344574,372.999176 
	C268.591217,372.929688 286.837738,372.822845 306.005585,372.824249 
	C311.975372,372.793274 317.945160,372.762299 324.840881,372.954651 
	C330.822540,372.971710 336.804291,373.019196 342.785828,373.000397 
	C364.878387,372.930969 386.970825,372.839630 409.986389,372.860016 
	C415.971680,372.825684 421.957001,372.791321 428.868134,372.959930 
	C438.206238,373.040833 447.544312,373.121704 456.832581,373.930359 
	C456.537598,375.553711 456.242615,377.177094 455.897064,379.078613 
	C459.984924,376.738861 463.463745,374.747681 467.868347,372.959717 
	C493.499237,372.926483 519.130127,372.893280 545.503601,373.083069 
	C547.416138,373.008759 549.328674,372.934448 552.143677,372.957489 
	C570.697510,372.957489 589.251343,372.957489 607.805115,372.957489 
	C607.803223,372.536835 607.801270,372.116180 607.799316,371.695526 
	C589.438232,371.695526 571.077087,371.695526 552.766052,370.908905 
	C551.465210,368.313660 550.164368,365.718445 548.912415,362.273956 
	C548.925049,360.860992 548.937622,359.448059 549.832092,357.877014 
	C552.400574,357.700073 554.969055,357.523132 558.373413,357.288635 
	C555.825500,345.428864 553.416199,334.214081 551.596375,322.693298 
	C556.145325,317.651215 561.291199,313.024536 565.139282,307.494751 
	C581.360535,284.184601 586.954956,257.418213 587.698425,229.754028 
	C588.077759,215.639465 586.233398,201.280151 583.772095,187.317413 
	C580.031189,166.095886 571.511780,146.558426 557.403992,130.052765 
	C537.202393,106.417404 510.526855,96.804268 479.995331,95.241859 
	C479.428223,92.195488 478.959076,89.268089 474.513123,90.015846 
	C472.903931,90.286491 469.998962,89.867294 469.622589,88.959557 
	C468.891388,87.196228 469.443054,84.856728 469.632660,82.771324 
	C469.758911,81.382225 470.848969,79.674805 470.350220,78.705345 
	C468.231567,74.587372 462.532471,74.368225 459.379181,77.787682 
	C458.445007,78.800690 456.555939,79.653404 455.295135,79.442009 
	C454.039032,79.231384 452.715057,77.774719 451.979828,76.533310 
	C451.093506,75.036789 450.796082,73.191467 450.180237,71.302322 
	C448.637024,71.570091 447.528809,71.789337 446.412323,71.951332 
	C442.145782,72.570412 438.324829,73.374191 440.735443,79.331001 
	C441.074768,80.169586 439.892975,82.401665 438.920532,82.809723 
	C437.484222,83.412422 435.047333,83.655960 434.011749,82.829903 
	C430.012787,79.640053 428.441925,82.069191 426.229553,85.087029 
	C423.735229,88.489471 424.173279,90.331749 427.717255,92.563622 
	C431.342133,94.846466 430.937897,99.274498 427.090088,99.995193 
	C420.863586,101.161423 421.338196,104.660233 422.105072,109.007858 
	C416.374115,111.018471 410.652710,113.056877 404.909943,115.033257 
	C396.059296,118.079208 387.876709,123.388557 378.252075,122.358368 
	C383.739716,113.134720 383.739716,113.134712 374.629059,107.096344 
	C364.416077,100.327370 364.448608,100.349167 357.611176,110.555008 
	C356.552917,112.134613 355.025879,114.611000 353.740112,114.595802 
	C350.167328,114.553581 346.292419,114.035690 343.176514,112.449333 
	C341.639160,111.666649 341.435791,108.134598 340.770111,105.806213 
	C340.134644,103.583389 340.074524,101.096588 339.012939,99.129875 
	C338.299103,97.807358 336.144592,96.236008 334.873138,96.420433 
	C329.648926,97.178169 324.546967,98.741867 319.338043,99.655830 
	C316.187256,100.208664 315.596008,101.894524 316.168793,104.558525 
	C316.899628,107.957832 317.977539,111.321175 318.279846,114.755119 
	C318.402588,116.149544 316.877228,117.689041 315.581512,118.589523 
	C300.226410,114.374382 284.635620,112.772537 268.840363,115.142372 
	C262.209442,116.137230 254.849335,116.567818 249.343811,119.827446 
	C239.449875,125.685318 230.217255,132.652985 222.486145,141.716339 
	C202.778976,164.819519 194.508957,191.951263 193.225311,221.493973 
	C192.806030,231.143799 194.155365,241.089813 196.190292,250.579910 
	C200.071930,268.682007 206.411743,285.893829 219.350479,299.871429 
	C222.507660,303.282104 225.377777,306.986969 228.746841,310.167877 
	C240.198685,320.980042 253.537308,327.875305 269.686981,329.908478 
	C269.819031,338.275269 269.951080,346.642090 269.893188,355.695679 
	C269.916443,357.477386 269.939667,359.259094 269.396149,361.556061 
	C269.210602,364.823975 268.028168,366.657043 264.210083,366.205811 
	C260.361786,365.751038 258.046509,368.037140 256.014465,371.727081 
	C244.960556,371.813873 233.906662,371.900665 222.498505,372.172607 
z"/>
<path fill="#0b0418" opacity="1.000000" stroke="none" 
	d="
M480.107513,96.033104 
	C510.526855,96.804268 537.202393,106.417404 557.403992,130.052765 
	C571.511780,146.558426 580.031189,166.095886 583.772095,187.317413 
	C586.233398,201.280151 588.077759,215.639465 587.698425,229.754028 
	C586.954956,257.418213 581.360535,284.184601 565.139282,307.494751 
	C561.291199,313.024536 556.145325,317.651215 551.094727,322.526672 
	C546.508911,307.198730 542.424805,292.037476 538.586304,276.602356 
	C542.245239,274.045471 545.658630,271.762390 549.490845,269.199127 
	C545.903564,263.883850 542.506287,258.850189 539.082825,253.377930 
	C538.709045,248.121460 538.361511,243.303604 538.387878,238.345612 
	C540.999573,237.273895 543.673035,236.831863 543.002747,233.272873 
	C540.423828,219.580582 537.137695,206.101868 529.813171,194.050262 
	C525.557556,187.048096 519.931946,185.929764 511.962585,190.247086 
	C507.132294,196.883377 506.935059,200.281311 510.712219,206.196716 
	C510.603943,206.845978 510.678650,207.358917 510.773102,208.284790 
	C510.748932,209.795639 510.705017,210.893570 510.426086,212.025177 
	C509.566498,212.484238 508.941925,212.909592 507.912476,213.401947 
	C503.219086,213.989639 502.121948,217.360992 501.125702,220.734497 
	C499.760925,225.355972 498.508698,230.010681 497.147827,234.866592 
	C493.065338,231.515472 489.536987,228.619186 485.868469,225.430481 
	C483.829834,222.854095 481.931366,220.570160 479.876648,218.098251 
	C478.804596,220.732193 478.074921,222.524948 477.212769,224.643127 
	C479.096710,226.686356 481.087646,228.845627 483.037842,231.385376 
	C483.157257,232.715683 482.980499,233.983917 483.530243,234.565521 
	C488.392242,239.709488 493.290009,244.829605 498.417145,249.704407 
	C499.404724,250.643372 501.440826,250.479507 502.979370,251.226624 
	C501.586731,262.644043 499.195343,273.647095 499.063477,284.677216 
	C498.859131,301.771423 500.195801,318.884094 500.419739,335.992767 
	C490.364624,335.325500 480.768890,334.654358 471.104858,333.520874 
	C471.005493,327.393524 470.974457,321.728577 471.412933,316.033630 
	C476.690948,316.003632 481.499481,316.003632 486.534088,316.003632 
	C485.752197,309.982849 481.972473,309.852814 478.229004,309.573944 
	C479.701691,305.203949 481.032593,301.146942 482.566650,296.850037 
	C483.176910,295.405670 483.584015,294.201233 484.433899,292.962067 
	C486.177094,292.909149 487.673157,293.288696 488.727478,292.770111 
	C489.988403,292.149872 490.871643,290.761902 491.918457,289.706451 
	C490.899689,288.786652 490.019470,287.477051 488.824707,287.052368 
	C487.527161,286.591125 485.936981,286.952972 484.394501,286.564758 
	C484.935822,284.749481 485.158844,282.689941 486.245697,282.008820 
	C491.583984,278.663330 493.558502,275.460419 491.397888,269.661255 
	C485.472748,253.757904 477.435547,239.733917 458.024933,237.345322 
	C457.866180,235.101776 457.317963,233.114822 457.742615,231.363815 
	C458.360535,228.816086 459.679382,226.438354 460.899597,223.653656 
	C461.517426,220.552917 463.259613,216.689972 462.070618,215.253967 
	C459.757874,212.460785 456.015900,210.236862 452.460419,209.272934 
	C449.382721,208.438522 445.586395,209.178696 442.414612,210.187592 
	C440.628143,210.755844 438.829865,213.059875 438.177856,214.971176 
	C437.370911,217.336563 437.259949,220.344284 441.031006,221.477631 
	C439.504364,228.538895 443.743073,233.521439 445.551941,239.144562 
	C435.803802,242.835464 428.804382,249.184967 423.540039,258.001160 
	C420.208282,258.000671 417.328430,258.000671 414.178741,258.000671 
	C415.321533,263.415100 416.263580,267.878387 417.172119,272.757385 
	C416.258881,278.233826 417.251404,282.643036 421.075195,285.988007 
	C408.749908,286.375885 396.915497,286.671875 385.052124,286.714783 
	C384.959076,286.304016 384.895050,286.146423 384.857208,285.580811 
	C383.597809,277.112549 382.312195,269.052307 381.057373,260.575012 
	C380.726532,257.760193 380.364868,255.362411 380.227783,252.699432 
	C385.663940,249.563354 380.851166,246.031326 381.357452,242.590302 
	C382.418701,241.089096 383.683990,239.904480 383.895996,238.554474 
	C384.304840,235.950699 384.118591,233.253479 384.506195,230.736145 
	C390.720917,234.871796 391.868988,234.787354 396.726135,229.892136 
	C398.950470,227.650345 401.340851,225.526291 403.255524,223.040405 
	C404.584015,221.315567 405.229034,219.064285 406.466309,216.888702 
	C409.872131,213.797241 413.237335,211.073853 415.986267,207.828491 
	C417.053986,206.567932 417.091766,204.090302 416.895874,202.241592 
	C416.789215,201.235077 415.328369,200.197845 414.259613,199.518463 
	C413.269470,198.889038 411.988220,198.717529 410.580994,198.262100 
	C409.886383,199.271133 408.861938,200.759308 407.793610,202.311188 
	C407.096924,201.528366 406.533142,200.894882 405.671265,199.926483 
	C404.331055,203.552505 403.153442,206.738647 401.697266,210.108337 
	C398.380829,213.542664 395.342896,216.793442 392.158905,220.200531 
	C388.420807,214.937393 385.616577,210.010010 381.861877,205.964951 
	C377.714600,201.497025 371.743408,201.612549 365.956848,201.575958 
	C367.534241,198.882141 369.189819,196.450348 371.178558,194.129791 
	C372.931061,195.106079 374.360107,195.955612 375.768188,196.838638 
	C387.865570,204.425140 385.374756,204.373764 392.790985,193.162689 
	C398.920715,183.896393 398.687103,183.786896 389.338989,177.513947 
	C387.587097,176.338348 384.775330,174.858643 384.712921,173.421158 
	C384.559021,169.877121 385.176941,166.039078 386.592499,162.804016 
	C387.241028,161.321884 390.423889,160.639023 392.582153,160.179367 
	C403.489166,157.856491 403.503601,157.924057 401.203827,146.767395 
	C398.755798,134.891541 398.624847,134.418961 387.128113,137.604126 
	C379.759949,139.645493 378.995209,133.554245 376.015839,130.245422 
	C373.334595,127.267677 376.389557,125.176857 378.009430,123.004593 
	C387.876709,123.388557 396.059296,118.079208 404.909943,115.033257 
	C410.652710,113.056877 416.374115,111.018471 422.590698,109.383041 
	C424.735046,110.512520 426.393829,111.266808 427.840393,112.303909 
	C407.399323,118.881386 402.018982,142.046143 414.980133,156.817154 
	C417.743896,159.966827 418.478577,164.896957 420.078888,169.421112 
	C420.023590,171.228699 420.037445,172.621964 419.739075,174.106277 
	C416.092896,176.544006 421.028137,176.432861 420.491852,178.321732 
	C420.390686,179.486328 420.335236,180.263596 419.962219,181.091797 
	C416.885590,185.237106 421.986206,182.310501 422.220306,184.171677 
	C433.928528,194.911194 441.085815,194.766830 451.517548,182.033417 
	C452.633331,181.642944 453.368256,181.253708 454.103210,180.864471 
	C453.464203,180.559738 452.825195,180.255020 452.122955,179.543747 
	C452.083313,177.768295 452.106903,176.399399 452.479309,175.009567 
	C453.199158,174.601929 453.570160,174.215210 453.941162,173.828506 
	C453.310364,173.549576 452.679565,173.270660 451.968811,172.572296 
	C451.787140,170.721497 451.685425,169.290176 451.641571,167.447708 
	C452.803101,163.277039 453.057251,158.929916 455.173340,155.870682 
	C460.983765,147.470520 462.416534,138.693863 460.142792,128.937973 
	C460.947815,127.257851 461.389832,125.675850 461.790527,124.083450 
	C462.215179,122.395882 462.108978,119.751144 463.118317,119.227341 
	C464.631592,118.442039 467.456299,118.393990 468.774780,119.346016 
	C473.445709,122.718857 474.309021,118.505569 476.185760,116.150139 
	C478.132355,113.707069 478.573395,111.741714 475.300842,109.724785 
	C473.813263,108.807968 472.001038,106.114433 472.410828,104.969223 
	C473.006561,103.304207 475.369659,101.434792 477.172791,101.210663 
	C481.070984,100.726120 480.699219,98.632317 480.107513,96.033104 
z"/>
<path fill="#0b0418" opacity="1.000000" stroke="none" 
	d="
M269.506287,328.985504 
	C253.537308,327.875305 240.198685,320.980042 228.746841,310.167877 
	C225.377777,306.986969 222.507660,303.282104 219.350479,299.871429 
	C206.411743,285.893829 200.071930,268.682007 196.190292,250.579910 
	C194.155365,241.089813 192.806030,231.143799 193.225311,221.493973 
	C194.508957,191.951263 202.778976,164.819519 222.486145,141.716339 
	C230.217255,132.652985 239.449875,125.685318 249.343811,119.827446 
	C254.849335,116.567818 262.209442,116.137230 268.840363,115.142372 
	C284.635620,112.772537 300.226410,114.374382 315.642822,119.146774 
	C311.947998,122.850502 308.697235,125.735863 303.209930,121.671814 
	C294.122162,114.941154 293.848389,115.310867 287.465363,124.950890 
	C280.900848,134.865067 280.799774,135.024841 290.802521,141.351273 
	C294.469116,143.670288 294.962616,146.075790 294.711761,150.309204 
	C294.333008,156.700455 291.031342,158.396362 285.734894,158.888214 
	C284.095398,159.040466 282.499756,159.724045 280.862488,159.829544 
	C277.147491,160.068970 276.486389,162.339645 277.057983,165.342712 
	C277.956757,170.064590 279.196594,174.727661 279.940155,179.470779 
	C280.420929,182.537552 282.047699,183.455505 284.750458,182.987671 
	C287.688049,182.479202 290.631348,181.909607 293.497528,181.101807 
	C300.019409,179.263687 301.186737,185.107330 303.611725,188.527481 
	C304.519409,189.807693 303.666321,193.139053 302.583069,194.899628 
	C294.792847,207.560867 294.226166,204.314941 306.393921,212.488068 
	C315.361328,218.511505 315.500458,218.304321 321.505524,209.199707 
	C326.009827,202.370468 335.516235,202.937851 339.117279,210.601074 
	C334.866699,218.699799 336.449524,227.171555 336.057526,235.373871 
	C335.665161,243.583588 336.799896,244.905533 344.790527,247.531586 
	C344.633331,248.545593 344.520050,249.220474 344.237701,250.223236 
	C343.075684,253.732071 344.838928,255.174179 347.437195,256.455505 
	C346.662811,264.393372 345.978180,271.908661 345.207275,279.861938 
	C344.706726,281.887665 344.292450,283.475372 343.475586,285.053162 
	C341.494415,284.993652 339.915863,284.944031 338.118469,284.617737 
	C334.358459,280.614319 330.197845,279.206116 325.107544,280.628357 
	C325.261688,278.315247 325.504181,276.320953 325.838562,273.921783 
	C327.740814,272.675201 329.488556,271.635559 331.376343,271.038849 
	C334.099945,270.177917 336.925171,269.638458 339.794800,268.940491 
	C338.834625,263.909912 335.782593,262.638855 332.471191,263.597290 
	C328.154419,264.846741 324.128845,267.102356 319.696167,269.133423 
	C313.338379,274.122498 312.562225,276.295135 304.155365,268.231720 
	C299.996826,264.243073 295.959320,260.128326 291.875122,255.720154 
	C292.210052,253.910660 292.045074,251.941925 292.943390,251.075180 
	C298.829529,245.396011 299.653168,241.292191 295.985840,233.608582 
	C293.425476,226.212067 289.373505,224.690918 280.095734,226.674072 
	C278.167053,225.670868 276.128998,224.669952 274.115082,224.716354 
	C269.669556,224.818817 268.592163,228.605804 268.363953,231.904663 
	C268.224762,233.916473 269.730804,236.354309 271.139374,238.075928 
	C272.640808,239.911011 274.898224,241.127533 276.879272,243.003952 
	C277.871765,244.457092 278.661469,246.219482 279.776367,246.457306 
	C283.681244,247.290268 283.435699,249.510269 282.449188,252.380569 
	C282.141632,253.275345 282.268372,254.319382 281.942566,255.508850 
	C267.123993,265.663605 261.830872,280.935059 257.986023,297.021851 
	C258.024109,297.026459 258.040131,296.951416 257.835449,296.969208 
	C257.405457,297.166382 257.269958,297.398254 257.138672,298.148163 
	C257.783356,303.372314 258.513733,308.130951 259.155151,313.253693 
	C258.465179,314.116852 257.779816,314.543976 257.280487,315.129700 
	C256.178070,316.422882 255.169342,317.795929 254.122375,319.136414 
	C255.631210,319.718964 257.108551,320.679443 258.655182,320.808380 
	C262.270386,321.109711 265.918854,321.011871 269.659424,321.133423 
	C269.764984,321.191101 269.922546,321.009308 269.856262,321.449402 
	C269.695435,324.254822 269.600861,326.620178 269.506287,328.985504 
z"/>
<path fill="#B499F6" opacity="1.000000" stroke="none" 
	d="
M339.214539,210.256653 
	C335.516235,202.937851 326.009827,202.370468 321.505524,209.199707 
	C315.500458,218.304321 315.361328,218.511505 306.393921,212.488068 
	C294.226166,204.314941 294.792847,207.560867 302.583069,194.899628 
	C303.666321,193.139053 304.519409,189.807693 303.611725,188.527481 
	C301.186737,185.107330 300.019409,179.263687 293.497528,181.101807 
	C290.631348,181.909607 287.688049,182.479202 284.750458,182.987671 
	C282.047699,183.455505 280.420929,182.537552 279.940155,179.470779 
	C279.196594,174.727661 277.956757,170.064590 277.057983,165.342712 
	C276.486389,162.339645 277.147491,160.068970 280.862488,159.829544 
	C282.499756,159.724045 284.095398,159.040466 285.734894,158.888214 
	C291.031342,158.396362 294.333008,156.700455 294.711761,150.309204 
	C294.962616,146.075790 294.469116,143.670288 290.802521,141.351273 
	C280.799774,135.024841 280.900848,134.865067 287.465363,124.950890 
	C293.848389,115.310867 294.122162,114.941154 303.209930,121.671814 
	C308.697235,125.735863 311.947998,122.850502 315.902954,119.433273 
	C316.877228,117.689041 318.402588,116.149544 318.279846,114.755119 
	C317.977539,111.321175 316.899628,107.957832 316.168793,104.558525 
	C315.596008,101.894524 316.187256,100.208664 319.338043,99.655830 
	C324.546967,98.741867 329.648926,97.178169 334.873138,96.420433 
	C336.144592,96.236008 338.299103,97.807358 339.012939,99.129875 
	C340.074524,101.096588 340.134644,103.583389 340.770111,105.806213 
	C341.435791,108.134598 341.639160,111.666649 343.176514,112.449333 
	C346.292419,114.035690 350.167328,114.553581 353.740112,114.595802 
	C355.025879,114.611000 356.552917,112.134613 357.611176,110.555008 
	C364.448608,100.349167 364.416077,100.327370 374.629059,107.096344 
	C383.739716,113.134712 383.739716,113.134720 378.130737,122.681480 
	C376.389557,125.176857 373.334595,127.267677 376.015839,130.245422 
	C378.995209,133.554245 379.759949,139.645493 387.128113,137.604126 
	C398.624847,134.418961 398.755798,134.891541 401.203827,146.767395 
	C403.503601,157.924057 403.489166,157.856491 392.582153,160.179367 
	C390.423889,160.639023 387.241028,161.321884 386.592499,162.804016 
	C385.176941,166.039078 384.559021,169.877121 384.712921,173.421158 
	C384.775330,174.858643 387.587097,176.338348 389.338989,177.513947 
	C398.687103,183.786896 398.920715,183.896393 392.790985,193.162689 
	C385.374756,204.373764 387.865570,204.425140 375.768188,196.838638 
	C374.360107,195.955612 372.931061,195.106079 371.181091,193.714569 
	C370.506378,189.913437 370.162354,186.638763 370.088379,183.110657 
	C370.741730,180.340134 371.780548,177.666458 371.232391,175.371933 
	C370.957550,174.221542 366.885193,172.578995 366.087555,173.190445 
	C362.240326,176.139709 357.968903,174.235138 354.046509,174.693420 
	C355.884827,170.896667 358.420654,167.634018 359.369934,163.961304 
	C362.385223,152.295120 354.458374,141.515182 342.000793,139.753220 
	C332.745117,138.444122 320.718536,144.662827 319.990662,156.949310 
	C319.241821,169.589539 327.847260,179.294357 340.109528,179.030518 
	C343.825897,178.950546 347.521667,177.914246 351.152588,177.666626 
	C348.725006,181.739853 348.513702,185.417389 351.240234,189.413834 
	C351.592590,191.154236 351.602875,193.205780 352.511169,193.745163 
	C355.660675,195.615494 355.186127,198.380432 354.700409,201.195114 
	C348.352448,202.660461 343.225220,205.525009 339.214539,210.256653 
z"/>
<path fill="#2F4974" opacity="1.000000" stroke="none" 
	d="
M500.879089,335.988922 
	C500.195801,318.884094 498.859131,301.771423 499.063477,284.677216 
	C499.195343,273.647095 501.586731,262.644043 503.212219,250.963074 
	C504.384064,246.541443 506.443542,245.464355 510.356445,246.445602 
	C512.993469,247.106903 515.982422,246.643555 518.777100,246.342133 
	C525.329956,245.635345 525.326904,245.551514 526.216675,251.819687 
	C526.613586,254.615768 526.981262,257.416016 527.110474,260.453552 
	C524.380188,262.309479 521.832214,263.830688 519.441040,265.567749 
	C516.618591,267.618164 515.256226,270.451843 517.024353,273.711060 
	C519.183105,277.690399 521.790283,281.426514 524.212280,285.281677 
	C526.763000,283.911133 528.773254,282.830963 531.127197,281.834869 
	C533.314453,280.306610 535.158142,278.694244 537.227539,277.060242 
	C537.758789,277.037323 538.054504,276.983185 538.340637,276.876190 
	C542.424805,292.037476 546.508911,307.198730 550.799927,322.679657 
	C553.416199,334.214081 555.825500,345.428864 558.373413,357.288635 
	C554.969055,357.523132 552.400574,357.700073 548.961853,357.874207 
	C546.044189,357.927216 543.996765,357.983002 541.577393,357.955811 
	C539.919739,356.682831 537.983215,355.725739 537.459778,354.262970 
	C535.069458,347.583130 533.075806,340.761292 530.953491,333.596588 
	C526.870544,318.447815 522.773682,303.692993 518.676758,288.938141 
	C517.780762,291.680786 517.853394,294.118378 518.013489,296.550262 
	C518.883301,309.763916 519.774902,322.976166 520.607910,336.639832 
	C521.218567,343.950897 521.880371,350.811005 522.563843,357.896271 
	C519.236389,358.058289 516.098206,358.211121 512.519409,358.276794 
	C509.375214,358.226471 506.671478,358.263245 503.686707,357.989136 
	C502.563477,350.448456 501.721283,343.218689 500.879089,335.988922 
z"/>
<path fill="#B499F6" opacity="1.000000" stroke="none" 
	d="
M480.051422,95.637482 
	C480.699219,98.632317 481.070984,100.726120 477.172791,101.210663 
	C475.369659,101.434792 473.006561,103.304207 472.410828,104.969223 
	C472.001038,106.114433 473.813263,108.807968 475.300842,109.724785 
	C478.573395,111.741714 478.132355,113.707069 476.185760,116.150139 
	C474.309021,118.505569 473.445709,122.718857 468.774780,119.346016 
	C467.456299,118.393990 464.631592,118.442039 463.118317,119.227341 
	C462.108978,119.751144 462.215179,122.395882 461.790527,124.083450 
	C461.389832,125.675850 460.947815,127.257851 459.915588,128.701813 
	C453.949127,116.914001 444.801025,111.443787 431.820251,111.595444 
	C430.384186,111.589409 429.184265,111.821327 427.992340,112.026016 
	C428.000366,111.998779 428.052582,112.021103 428.052582,112.021103 
	C426.393829,111.266808 424.735046,110.512520 422.992554,109.394897 
	C421.338196,104.660233 420.863586,101.161423 427.090088,99.995193 
	C430.937897,99.274498 431.342133,94.846466 427.717255,92.563622 
	C424.173279,90.331749 423.735229,88.489471 426.229553,85.087029 
	C428.441925,82.069191 430.012787,79.640053 434.011749,82.829903 
	C435.047333,83.655960 437.484222,83.412422 438.920532,82.809723 
	C439.892975,82.401665 441.074768,80.169586 440.735443,79.331001 
	C438.324829,73.374191 442.145782,72.570412 446.412323,71.951332 
	C447.528809,71.789337 448.637024,71.570091 450.180237,71.302322 
	C450.796082,73.191467 451.093506,75.036789 451.979828,76.533310 
	C452.715057,77.774719 454.039032,79.231384 455.295135,79.442009 
	C456.555939,79.653404 458.445007,78.800690 459.379181,77.787682 
	C462.532471,74.368225 468.231567,74.587372 470.350220,78.705345 
	C470.848969,79.674805 469.758911,81.382225 469.632660,82.771324 
	C469.443054,84.856728 468.891388,87.196228 469.622589,88.959557 
	C469.998962,89.867294 472.903931,90.286491 474.513123,90.015846 
	C478.959076,89.268089 479.428223,92.195488 480.051422,95.637482 
M442.046356,101.769691 
	C443.777283,108.090401 448.221985,111.185425 453.457977,109.716057 
	C459.191589,108.107040 461.063904,104.252800 459.093323,97.125420 
	C457.420502,91.754074 453.063019,91.418915 448.710999,92.159302 
	C444.037140,92.954445 441.694305,96.128822 442.046356,101.769691 
z"/>
<path fill="#163B5F" opacity="1.000000" stroke="none" 
	d="
M427.942291,372.756958 
	C421.957001,372.791321 415.971680,372.825684 409.505005,372.493958 
	C408.990723,371.709656 408.957794,371.291382 409.096008,370.588135 
	C411.675262,367.089233 414.083374,363.875336 416.833862,360.583008 
	C420.415863,360.623383 423.655487,360.742188 426.909485,361.310669 
	C427.314026,365.117920 427.704224,368.475494 428.023132,372.058594 
	C427.951813,372.284088 427.942291,372.756958 427.942291,372.756958 
z"/>
<path fill="#163B5F" opacity="1.000000" stroke="none" 
	d="
M466.942566,372.756531 
	C463.463745,374.747681 459.984924,376.738861 455.897064,379.078613 
	C456.242615,377.177094 456.537598,375.553711 456.860229,373.214600 
	C456.883057,372.264313 456.878235,372.029755 456.981873,371.464539 
	C456.803680,369.308716 456.517029,367.483551 456.311768,365.355835 
	C459.260376,363.025482 462.127563,360.997650 465.177063,359.231720 
	C466.507233,360.732361 467.655151,361.971069 468.906250,363.472137 
	C469.338806,363.879761 469.668243,364.025055 470.070923,364.362793 
	C470.322449,364.773315 470.543274,364.932495 470.880676,365.264526 
	C470.954773,365.496399 471.159637,365.938019 471.176361,366.241333 
	C469.825256,368.323242 468.457428,370.101807 467.025452,372.094818 
	C466.961304,372.309265 466.942566,372.756531 466.942566,372.756531 
z"/>
<path fill="#19274E" opacity="1.000000" stroke="none" 
	d="
M269.962891,361.040802 
	C269.939667,359.259094 269.916443,357.477386 270.267822,355.346039 
	C270.822601,354.948212 271.002777,354.899994 271.463989,354.727844 
	C273.165680,353.398712 274.586365,352.193542 276.324707,351.109467 
	C278.880219,352.824829 281.118073,354.419067 283.219727,356.410492 
	C279.678497,362.114288 283.662628,366.925568 283.786743,371.905731 
	C283.055481,371.894440 282.637726,371.951996 282.105591,371.677368 
	C277.981842,367.910339 273.972382,364.475555 269.962891,361.040802 
z"/>
<path fill="#19274E" opacity="1.000000" stroke="none" 
	d="
M323.914948,372.731354 
	C317.945160,372.762299 311.975372,372.793274 305.529083,372.528564 
	C305.052582,372.232880 304.845398,371.778442 304.885193,371.360565 
	C305.345490,367.707703 305.765961,364.472687 306.620392,361.211548 
	C309.674988,361.135193 312.295654,361.084961 315.011108,361.380859 
	C316.215271,363.408875 317.134857,365.265472 318.481750,366.728699 
	C320.186829,368.581055 322.239532,370.113464 324.039917,372.009796 
	C323.937500,372.235748 323.914948,372.731354 323.914948,372.731354 
z"/>
<path fill="#AB99E3" opacity="1.000000" stroke="none" 
	d="
M269.679535,361.298431 
	C273.972382,364.475555 277.981842,367.910339 281.619446,371.619354 
	C273.145752,371.801819 265.043854,371.710083 256.941986,371.618317 
	C258.046509,368.037140 260.361786,365.751038 264.210083,366.205811 
	C268.028168,366.657043 269.210602,364.823975 269.679535,361.298431 
z"/>
<path fill="#43597C" opacity="1.000000" stroke="none" 
	d="
M552.716003,371.695526 
	C571.077087,371.695526 589.438232,371.695526 607.799316,371.695526 
	C607.801270,372.116180 607.803223,372.536835 607.805115,372.957489 
	C589.251343,372.957489 570.697510,372.957489 551.762085,372.724518 
	C551.825684,372.226196 552.270813,371.960876 552.716003,371.695526 
z"/>
<path fill="#43597C" opacity="1.000000" stroke="none" 
	d="
M324.377930,372.843018 
	C323.914948,372.731354 323.937500,372.235748 324.482574,372.001678 
	C327.993317,371.726105 330.958984,371.684601 334.311768,371.761230 
	C335.495941,371.809601 336.293060,371.739868 337.550415,371.711731 
	C344.605621,371.466278 351.200562,371.179199 358.120392,370.927368 
	C365.049133,370.957977 371.652985,370.953308 378.643494,371.064270 
	C388.995026,371.077637 398.959961,370.975372 408.924896,370.873138 
	C408.957794,371.291382 408.990723,371.709656 409.043457,372.442200 
	C386.970825,372.839630 364.878387,372.930969 342.785828,373.000397 
	C336.804291,373.019196 330.822540,372.971710 324.377930,372.843018 
z"/>
<path fill="#E56A82" opacity="1.000000" stroke="none" 
	d="
M552.741028,371.302216 
	C552.270813,371.960876 551.825684,372.226196 551.310852,372.675842 
	C549.328674,372.934448 547.416138,373.008759 544.991821,372.741943 
	C543.993469,372.166870 543.506775,371.932892 542.870605,371.404785 
	C542.913208,368.778046 543.105347,366.445435 543.620972,364.138245 
	C545.584106,363.816833 547.223816,363.470032 548.863464,363.123230 
	C550.164368,365.718445 551.465210,368.313660 552.741028,371.302216 
z"/>
<path fill="#43597C" opacity="1.000000" stroke="none" 
	d="
M256.478210,371.672699 
	C265.043854,371.710083 273.145752,371.801819 281.733765,371.951599 
	C282.637726,371.951996 283.055481,371.894440 284.243286,371.830017 
	C291.623993,371.808258 298.234680,371.793365 304.845398,371.778442 
	C304.845398,371.778442 305.052582,372.232880 305.068420,372.482117 
	C286.837738,372.822845 268.591217,372.929688 250.344574,372.999176 
	C241.548813,373.032684 232.752777,372.995819 223.434601,372.725769 
	C222.912338,372.460724 222.852753,371.987457 222.852753,371.987457 
	C233.906662,371.900665 244.960556,371.813873 256.478210,371.672699 
z"/>
<path fill="#43597C" opacity="1.000000" stroke="none" 
	d="
M543.020142,371.698975 
	C543.506775,371.932892 543.993469,372.166870 544.620605,372.630432 
	C519.130127,372.893280 493.499237,372.926483 467.405457,372.858124 
	C466.942566,372.756531 466.961304,372.309265 467.485474,372.081299 
	C473.059570,371.769684 478.109497,371.686096 483.605682,371.662354 
	C487.695709,371.699951 491.339417,371.677734 495.342590,371.768433 
	C496.205811,371.862732 496.709625,371.844086 497.657990,371.860168 
	C501.369232,371.817719 504.635895,371.740570 508.375153,371.705658 
	C520.238525,371.731567 531.629333,371.715271 543.020142,371.698975 
z"/>
<path fill="#F2A3A5" opacity="1.000000" stroke="none" 
	d="
M548.887939,362.698608 
	C547.223816,363.470032 545.584106,363.816833 543.535522,363.753174 
	C542.734192,361.574738 542.341736,359.806763 541.949341,358.038788 
	C543.996765,357.983002 546.044189,357.927216 548.520874,357.953247 
	C548.937622,359.448059 548.925049,360.860992 548.887939,362.698608 
z"/>
<path fill="#43597C" opacity="1.000000" stroke="none" 
	d="
M271.182953,354.851776 
	C271.002777,354.899994 270.822601,354.948212 270.362762,355.002625 
	C269.951080,346.642090 269.819031,338.275269 269.596649,329.446991 
	C269.600861,326.620178 269.695435,324.254822 270.095520,321.442261 
	C270.401031,320.995056 270.879639,320.982666 270.933319,321.433411 
	C271.055603,324.581543 271.124207,327.278931 271.119812,330.441376 
	C271.092163,338.888184 271.137543,346.869995 271.182953,354.851776 
z"/>
<path fill="#43597C" opacity="1.000000" stroke="none" 
	d="
M456.873444,371.795227 
	C456.878235,372.029755 456.883057,372.264313 456.885132,372.850708 
	C447.544312,373.121704 438.206238,373.040833 428.405212,372.858459 
	C427.942291,372.756958 427.951813,372.284088 428.480225,372.031494 
	C433.306030,371.739197 437.603424,371.699493 442.290527,371.778992 
	C443.483337,371.822144 444.286377,371.746155 445.540039,371.711609 
	C449.618225,371.767120 453.245850,371.781158 456.873444,371.795227 
z"/>
<path fill="#AB99E3" opacity="1.000000" stroke="none" 
	d="
M222.675629,372.080017 
	C222.852753,371.987457 222.912338,372.460724 222.968597,372.692017 
	C222.849396,372.673096 222.673950,372.422852 222.675629,372.080017 
z"/>
<path fill="#E56A82" opacity="1.000000" stroke="none" 
	d="
M339.117279,210.601074 
	C343.225220,205.525009 348.352448,202.660461 354.853882,201.489197 
	C359.135345,207.398605 362.622711,207.423813 366.035034,201.837997 
	C371.743408,201.612549 377.714600,201.497025 381.861877,205.964951 
	C385.616577,210.010010 388.420807,214.937393 392.158905,220.200531 
	C395.342896,216.793442 398.380829,213.542664 401.963074,210.334930 
	C403.731384,212.601379 404.955383,214.824799 406.179413,217.048203 
	C405.229034,219.064285 404.584015,221.315567 403.255524,223.040405 
	C401.340851,225.526291 398.950470,227.650345 396.726135,229.892136 
	C391.868988,234.787354 390.720917,234.871796 384.432495,230.307083 
	C384.031647,224.964081 384.031647,220.191254 384.031647,214.998550 
	C380.609039,215.415573 378.010010,215.771500 375.402222,216.043243 
	C364.162018,217.214600 364.161072,217.205582 364.140747,229.019333 
	C363.019287,229.884567 362.096008,230.466263 360.795044,231.030701 
	C359.317078,231.013443 358.216827,231.013443 357.116577,231.013443 
	C357.101532,231.256241 357.086487,231.499039 357.071442,231.741821 
	C358.124023,231.880936 359.176605,232.020050 360.169373,232.545319 
	C359.666656,235.250961 359.223724,237.570450 358.798615,239.796524 
	C360.945770,239.472244 362.513397,239.235504 364.095520,239.432190 
	C364.245605,241.242920 364.381195,242.620224 364.534241,244.174591 
	C370.414764,243.697647 375.750214,243.264908 381.085663,242.832184 
	C380.851166,246.031326 385.663940,249.563354 379.837280,252.753235 
	C372.520172,254.105408 365.818176,255.138580 358.724457,256.142029 
	C357.554291,256.141418 356.775818,256.170532 355.562439,256.168274 
	C352.594025,256.102264 350.060516,256.067566 347.526978,256.032867 
	C344.838928,255.174179 343.075684,253.732071 344.657837,250.221725 
	C349.033478,248.506302 352.819946,247.120270 356.606445,245.734238 
	C356.338440,245.007080 356.070435,244.279938 355.802429,243.552780 
	C352.146454,244.766006 348.490479,245.979233 344.834503,247.192474 
	C336.799896,244.905533 335.665161,243.583588 336.057526,235.373871 
	C336.449524,227.171555 334.866699,218.699799 339.117279,210.601074 
M350.982452,229.203629 
	C350.267883,226.501297 349.553314,223.798965 348.505920,219.837830 
	C347.836609,225.429840 347.342834,229.555267 346.807129,234.031006 
	C348.821228,233.514740 350.369629,233.117828 351.965424,232.708786 
	C351.621155,231.688873 351.324219,230.809158 350.982452,229.203629 
z"/>
<path fill="#FED76E" opacity="1.000000" stroke="none" 
	d="
M432.056335,111.833374 
	C444.801025,111.443787 453.949127,116.914001 459.534424,128.795364 
	C462.416534,138.693863 460.983765,147.470520 455.173340,155.870682 
	C453.057251,158.929916 452.803101,163.277039 451.216187,167.451508 
	C447.419922,167.857544 444.106964,167.848618 440.842651,167.431732 
	C442.463135,158.020584 444.113251,149.029663 445.526062,140.001572 
	C445.748688,138.578934 445.283875,136.651886 444.381744,135.615234 
	C443.921478,135.086273 441.572021,135.665222 440.446106,136.350601 
	C436.853333,138.537628 433.339722,138.649200 429.484131,137.103714 
	C427.931580,136.481369 426.062592,136.648544 424.337585,136.456406 
	C424.261597,138.161316 423.789886,139.961929 424.175262,141.555267 
	C426.324158,150.440231 428.680603,159.274979 430.576111,168.249664 
	C426.840118,168.583893 423.494080,168.795349 420.148041,169.006821 
	C418.478577,164.896957 417.743896,159.966827 414.980133,156.817154 
	C402.018982,142.046143 407.399323,118.881386 427.840393,112.303909 
	C428.052582,112.021103 428.000366,111.998779 428.398987,112.074577 
	C429.883881,112.044708 430.970093,111.939041 432.056335,111.833374 
z"/>
<path fill="#7C63D3" opacity="1.000000" stroke="none" 
	d="
M423.991974,258.001648 
	C428.804382,249.184967 435.803802,242.835464 445.626099,239.501953 
	C447.039642,243.415665 448.997742,245.806396 453.146820,245.123764 
	C457.381989,244.426956 458.149719,241.323364 458.070312,237.707367 
	C477.435547,239.733917 485.472748,253.757904 491.397888,269.661255 
	C493.558502,275.460419 491.583984,278.663330 486.245697,282.008820 
	C485.158844,282.689941 484.935822,284.749481 483.879211,286.566193 
	C477.894958,286.914581 472.346100,286.870392 466.857666,286.422852 
	C466.174133,285.047943 465.609528,283.558685 464.644623,283.224304 
	C463.140045,282.702789 461.363922,282.964722 459.991516,282.646240 
	C462.790894,281.877167 465.301605,281.356537 467.979370,281.102173 
	C468.709839,281.960419 469.273163,282.552338 469.931091,283.516541 
	C474.100067,283.888794 478.174469,283.888794 482.248901,283.888794 
	C482.222198,283.337036 482.195496,282.785278 482.168793,282.233551 
	C478.141266,282.462280 474.113708,282.691040 470.072205,282.577271 
	C469.360291,281.157104 468.662354,280.079437 467.983734,278.998779 
	C468.003052,278.995789 467.986389,279.031036 467.992676,278.670197 
	C467.653503,277.704712 467.308014,277.100098 466.983734,276.498962 
	C467.004913,276.502472 466.973511,276.531830 467.039490,276.200348 
	C467.144135,275.646881 467.182770,275.424896 467.535156,275.170105 
	C468.533600,274.946472 469.218292,274.755646 469.903015,274.564789 
	C469.832428,274.325348 469.761841,274.085876 469.691254,273.846436 
	C468.697327,274.113037 467.703430,274.379608 466.481354,274.735565 
	C466.253204,274.824921 465.793152,274.998962 465.404602,275.014435 
	C460.256348,275.745209 455.573578,276.607208 452.665070,281.108307 
	C449.930634,274.372467 447.649414,267.813538 444.862274,261.477112 
	C444.221008,260.019165 441.909576,258.562592 440.253052,258.419220 
	C434.861023,257.952423 429.416382,258.094116 423.991974,258.001648 
z"/>
<path fill="#B59CF5" opacity="1.000000" stroke="none" 
	d="
M466.797211,286.826202 
	C472.346100,286.870392 477.894958,286.914581 483.959137,286.957367 
	C485.936981,286.952972 487.527161,286.591125 488.824707,287.052368 
	C490.019470,287.477051 490.899689,288.786652 491.918457,289.706451 
	C490.871643,290.761902 489.988403,292.149872 488.727478,292.770111 
	C487.673157,293.288696 486.177094,292.909149 484.113098,292.702576 
	C471.553040,292.353638 459.756165,292.253723 447.960236,292.088531 
	C444.960938,292.046539 444.880707,293.927277 445.023987,296.549866 
	C445.017548,315.678894 445.038116,334.345459 445.043610,353.478027 
	C445.048828,359.852783 445.069122,365.761475 445.089417,371.670166 
	C444.286377,371.746155 443.483337,371.822144 442.309998,371.334534 
	C441.947083,362.926331 441.954498,355.081726 441.977173,346.746826 
	C441.941711,331.167084 441.891022,316.077606 441.895752,300.570190 
	C441.946411,299.028534 441.941650,297.904877 441.959229,296.393555 
	C442.005615,289.840820 438.226288,292.222565 434.693298,292.941254 
	C417.885590,292.958191 401.556366,293.009430 384.873138,292.822449 
	C379.391083,292.556183 374.263062,292.528168 368.674866,292.372864 
	C361.113831,292.521637 354.012939,292.797668 346.462036,293.051697 
	C343.240387,293.029724 340.468750,293.029724 337.209900,293.029724 
	C337.209900,304.077606 337.209900,314.500763 337.159607,325.394745 
	C337.102905,341.133728 337.096527,356.401917 337.090149,371.670105 
	C336.293060,371.739868 335.495941,371.809601 334.332886,371.317932 
	C333.963837,355.832245 333.960754,340.907990 333.988220,325.517334 
	C334.029083,315.894775 333.879242,306.734222 334.126373,297.584412 
	C334.229309,293.773712 332.872986,292.737091 329.221985,292.812317 
	C319.237640,293.017944 309.243652,292.977295 299.260834,292.733795 
	C298.140106,292.706421 297.066406,290.753754 295.970886,289.693909 
	C297.036530,288.777832 298.012634,287.236664 299.185486,287.068634 
	C302.127411,286.647064 305.158356,286.846893 308.557587,286.834595 
	C310.314575,286.852966 311.667603,286.834259 313.476288,286.825806 
	C317.538300,286.786407 321.144623,286.736725 325.108795,286.777283 
	C326.883759,286.652252 328.300903,286.436951 330.052307,286.491730 
	C334.860077,286.804932 339.333527,286.848083 344.194244,286.908875 
	C345.598297,286.947266 346.615112,286.968018 348.122955,286.965454 
	C354.770905,286.873199 360.927856,286.804260 367.542419,286.797180 
	C373.323761,286.836517 378.647491,286.813965 384.243591,286.867615 
	C384.704315,286.951813 384.892700,286.959839 385.081116,286.967896 
	C396.915497,286.671875 408.749908,286.375885 421.053833,285.995728 
	C421.523407,285.911591 421.505096,285.947113 421.734131,286.129395 
	C422.308990,286.470490 422.654755,286.629303 423.467468,286.827850 
	C434.084991,286.850739 444.235596,286.833862 454.822937,286.826874 
	C459.105530,286.833252 462.951355,286.829712 466.797211,286.826202 
z"/>
<path fill="#E46981" opacity="1.000000" stroke="none" 
	d="
M527.362183,260.214355 
	C526.981262,257.416016 526.613586,254.615768 526.216675,251.819687 
	C525.326904,245.551514 525.329956,245.635345 518.777100,246.342133 
	C515.982422,246.643555 512.993469,247.106903 510.356445,246.445602 
	C506.443542,245.464355 504.384064,246.541443 503.226074,250.560852 
	C501.440826,250.479507 499.404724,250.643372 498.417145,249.704407 
	C493.290009,244.829605 488.392242,239.709488 483.530243,234.565521 
	C482.980499,233.983917 483.157257,232.715683 483.299805,231.179413 
	C484.404510,228.969620 485.206573,227.346268 486.008636,225.722900 
	C489.536987,228.619186 493.065338,231.515472 497.147827,234.866592 
	C498.508698,230.010681 499.760925,225.355972 501.125702,220.734497 
	C502.121948,217.360992 503.219086,213.989639 507.805603,213.827316 
	C508.541016,215.122833 508.720734,216.476715 509.456299,216.931396 
	C515.458313,220.641388 517.105408,220.291245 522.630493,214.698120 
	C529.694824,215.626251 532.894043,220.205902 534.713928,226.043427 
	C535.989868,230.136032 536.926025,234.334549 538.013916,238.485748 
	C538.361511,243.303604 538.709045,248.121460 539.048218,253.853485 
	C538.698975,259.232544 538.358154,263.697388 537.620361,268.131012 
	C535.141602,268.423279 533.059753,268.746796 530.612793,268.998779 
	C529.285767,266.022980 528.323975,263.118652 527.362183,260.214355 
z"/>
<path fill="#E56A82" opacity="1.000000" stroke="none" 
	d="
M445.058685,353.011993 
	C445.038116,334.345459 445.017548,315.678894 445.461060,296.509583 
	C458.128845,294.429962 470.281647,294.567017 482.363525,297.089966 
	C481.032593,301.146942 479.701691,305.203949 477.896240,309.736267 
	C472.263947,312.089233 467.106140,313.966919 461.548126,315.884705 
	C456.659821,317.113068 452.171753,318.301270 447.043427,319.658997 
	C449.780731,324.365936 451.994446,328.172546 454.295135,332.306274 
	C458.208557,339.385040 461.923981,346.203430 465.918030,352.854462 
	C467.445679,355.398285 467.511475,357.260162 464.994751,358.969788 
	C462.127563,360.997650 459.260376,363.025482 455.983093,365.246765 
	C454.299530,364.298279 452.849304,363.299011 451.788574,361.985229 
	C449.441376,359.078064 447.289948,356.012787 445.058685,353.011993 
z"/>
<path fill="#0b0418" opacity="1.000000" stroke="none" 
	d="
M494.983154,371.655518 
	C491.339417,371.677734 487.695709,371.699951 483.542633,371.319946 
	C481.090057,364.454041 475.636108,366.361420 471.159637,365.938019 
	C471.159637,365.938019 470.954773,365.496399 470.967285,364.800690 
	C471.044250,354.064392 471.108704,344.023834 471.173157,333.983246 
	C480.768890,334.654358 490.364624,335.325500 500.419739,335.992767 
	C501.721283,343.218689 502.563477,350.448456 503.685181,358.395966 
	C503.932068,361.022156 503.899445,362.930634 503.574646,364.996643 
	C501.179443,366.795441 499.076447,368.436646 496.727844,370.159973 
	C495.982544,370.713196 495.482849,371.184357 494.983154,371.655518 
z"/>
<path fill="#0b0418" opacity="1.000000" stroke="none" 
	d="
M454.386230,286.816986 
	C444.235596,286.833862 434.084991,286.850739 423.475464,286.674561 
	C423.016571,286.481506 423.044525,286.171875 423.089111,285.767212 
	C421.157684,281.022278 419.181641,276.681976 417.205627,272.341675 
	C416.263580,267.878387 415.321533,263.415100 414.178741,258.000671 
	C417.328430,258.000671 420.208282,258.000671 423.540039,258.001160 
	C429.416382,258.094116 434.861023,257.952423 440.253052,258.419220 
	C441.909576,258.562592 444.221008,260.019165 444.862274,261.477112 
	C447.649414,267.813538 449.930634,274.372467 452.696625,281.413452 
	C453.080475,282.380371 453.163391,282.784424 453.304993,283.502563 
	C453.704498,284.816772 454.045349,285.816864 454.386230,286.816986 
z"/>
<path fill="#7E51AD" opacity="1.000000" stroke="none" 
	d="
M367.084778,286.735291 
	C360.927856,286.804260 354.770905,286.873199 348.198456,286.584534 
	C348.338867,284.675659 348.870422,283.115143 349.454803,281.574677 
	C352.668121,273.104340 355.894348,264.638885 359.116150,256.171753 
	C365.818176,255.138580 372.520172,254.105408 379.612701,253.018417 
	C380.364868,255.362411 380.726532,257.760193 380.706848,260.616333 
	C376.354248,263.754944 372.301331,266.325836 368.466675,269.189117 
	C367.452240,269.946594 366.566559,271.600616 366.556885,272.850189 
	C366.521210,277.476929 366.876434,282.106659 367.084778,286.735291 
z"/>
<path fill="#27304C" opacity="1.000000" stroke="none" 
	d="
M538.387878,238.345612 
	C536.926025,234.334549 535.989868,230.136032 534.713928,226.043427 
	C532.894043,220.205902 529.694824,215.626251 522.488037,214.437408 
	C521.059448,213.048264 520.140259,211.999374 519.207886,210.579346 
	C519.664246,208.648010 519.682739,206.164856 520.677429,205.678619 
	C526.758667,202.705856 525.535828,200.553772 520.440918,197.954620 
	C518.956726,197.197433 518.172546,195.164169 516.881592,193.906631 
	C515.406128,192.469345 513.723389,191.244904 512.130676,189.927979 
	C519.931946,185.929764 525.557556,187.048096 529.813171,194.050262 
	C537.137695,206.101868 540.423828,219.580582 543.002747,233.272873 
	C543.673035,236.831863 540.999573,237.273895 538.387878,238.345612 
z"/>
<path fill="#F3EFF2" opacity="1.000000" stroke="none" 
	d="
M381.357452,242.590302 
	C375.750214,243.264908 370.414764,243.697647 364.534241,244.174591 
	C364.381195,242.620224 364.245605,241.242920 364.420441,239.249451 
	C369.533875,238.091660 372.687592,235.400040 374.764648,230.803314 
	C373.627533,230.312241 372.541107,229.843079 371.391571,229.346649 
	C372.099854,228.210602 372.634338,227.353348 373.168793,226.496109 
	C372.938385,226.136581 372.707947,225.777054 372.477539,225.417526 
	C369.764679,226.523621 367.051788,227.629700 364.338928,228.735779 
	C364.161072,217.205582 364.162018,217.214600 375.402222,216.043243 
	C378.010010,215.771500 380.609039,215.415573 384.031647,214.998550 
	C384.031647,220.191254 384.031647,224.964081 384.105347,230.165955 
	C384.118591,233.253479 384.304840,235.950699 383.895996,238.554474 
	C383.683990,239.904480 382.418701,241.089096 381.357452,242.590302 
z"/>
<path fill="#603994" opacity="1.000000" stroke="none" 
	d="
M367.542419,286.797180 
	C366.876434,282.106659 366.521210,277.476929 366.556885,272.850189 
	C366.566559,271.600616 367.452240,269.946594 368.466675,269.189117 
	C372.301331,266.325836 376.354248,263.754944 380.676025,261.033325 
	C382.312195,269.052307 383.597809,277.112549 384.684937,285.681610 
	C384.269684,286.352142 384.097931,286.552460 383.971222,286.791382 
	C378.647491,286.813965 373.323761,286.836517 367.542419,286.797180 
z"/>
<path fill="#F2A3A5" opacity="1.000000" stroke="none" 
	d="
M458.024933,237.345322 
	C458.149719,241.323364 457.381989,244.426956 453.146820,245.123764 
	C448.997742,245.806396 447.039642,243.415665 445.972107,239.450104 
	C443.743073,233.521439 439.504364,228.538895 441.342834,221.345428 
	C442.811798,220.321793 444.133759,219.279861 445.133545,219.529343 
	C450.367157,220.835266 455.519073,222.468597 460.699371,223.988144 
	C459.679382,226.438354 458.360535,228.816086 457.742615,231.363815 
	C457.317963,233.114822 457.866180,235.101776 458.024933,237.345322 
z"/>
<path fill="#F2A3A5" opacity="1.000000" stroke="none" 
	d="
M365.956848,201.575958 
	C362.622711,207.423813 359.135345,207.398605 355.224487,201.466888 
	C355.186127,198.380432 355.660675,195.615494 352.511169,193.745163 
	C351.602875,193.205780 351.592590,191.154236 351.610229,189.327789 
	C353.339142,188.452606 355.566833,188.305435 355.763336,187.595810 
	C356.920441,183.417038 359.700714,183.632339 363.059723,183.998367 
	C365.263367,184.238510 367.562164,183.605865 369.818329,183.364090 
	C370.162354,186.638763 370.506378,189.913437 370.847900,193.603333 
	C369.189819,196.450348 367.534241,198.882141 365.956848,201.575958 
z"/>
<path fill="#27304C" opacity="1.000000" stroke="none" 
	d="
M460.899597,223.653656 
	C455.519073,222.468597 450.367157,220.835266 445.133545,219.529343 
	C444.133759,219.279861 442.811798,220.321793 441.326599,220.900116 
	C437.259949,220.344284 437.370911,217.336563 438.177856,214.971176 
	C438.829865,213.059875 440.628143,210.755844 442.414612,210.187592 
	C445.586395,209.178696 449.382721,208.438522 452.460419,209.272934 
	C456.015900,210.236862 459.757874,212.460785 462.070618,215.253967 
	C463.259613,216.689972 461.517426,220.552917 460.899597,223.653656 
z"/>
<path fill="#F2A3A5" opacity="1.000000" stroke="none" 
	d="
M511.962585,190.247070 
	C513.723389,191.244904 515.406128,192.469345 516.881592,193.906631 
	C518.172546,195.164169 518.956726,197.197433 520.440918,197.954620 
	C525.535828,200.553772 526.758667,202.705856 520.677429,205.678619 
	C519.682739,206.164856 519.664246,208.648010 518.889771,210.751083 
	C516.831360,212.184326 515.145874,213.324341 513.287720,213.830994 
	C512.628357,214.010757 511.548828,212.649338 510.661102,211.991486 
	C510.705017,210.893570 510.748932,209.795639 511.024292,208.192749 
	C511.135529,207.145309 511.015381,206.602859 510.895203,206.060394 
	C506.935059,200.281311 507.132294,196.883377 511.962585,190.247070 
z"/>
<path fill="#143353" opacity="1.000000" stroke="none" 
	d="
M451.136719,182.034653 
	C441.085815,194.766830 433.928528,194.911194 422.536346,183.912628 
	C432.182831,182.907501 441.659760,182.471069 451.136719,182.034653 
z"/>
<path fill="#143353" opacity="1.000000" stroke="none" 
	d="
M420.078888,169.421112 
	C423.494080,168.795349 426.840118,168.583893 430.927002,168.364517 
	C432.144714,168.292633 432.621613,168.228683 433.503967,168.209808 
	C435.514526,168.150314 437.119598,168.045761 439.069031,168.018402 
	C439.873566,168.010300 440.333771,167.925003 440.794006,167.839691 
	C444.106964,167.848618 447.419922,167.857544 451.158264,167.862640 
	C451.685425,169.290176 451.787140,170.721497 451.508240,172.569366 
	C440.768829,173.329010 430.410095,173.672119 420.051331,174.015244 
	C420.037445,172.621964 420.023590,171.228699 420.078888,169.421112 
z"/>
<path fill="#F2A3A5" opacity="1.000000" stroke="none" 
	d="
M406.466309,216.888702 
	C404.955383,214.824799 403.731384,212.601379 402.241577,210.151382 
	C403.153442,206.738647 404.331055,203.552505 405.671265,199.926483 
	C406.533142,200.894882 407.096924,201.528366 407.793610,202.311188 
	C408.861938,200.759308 409.886383,199.271133 410.580994,198.262100 
	C411.988220,198.717529 413.269470,198.889038 414.259613,199.518463 
	C415.328369,200.197845 416.789215,201.235077 416.895874,202.241592 
	C417.091766,204.090302 417.053986,206.567932 415.986267,207.828491 
	C413.237335,211.073853 409.872131,213.797241 406.466309,216.888702 
M415.412018,205.473999 
	C415.412018,205.473999 415.549469,205.396805 415.412018,205.473999 
z"/>
<path fill="#143353" opacity="1.000000" stroke="none" 
	d="
M452.130493,175.030502 
	C452.106903,176.399399 452.083313,177.768295 451.648804,179.569412 
	C440.918488,180.348053 430.599152,180.694458 420.279785,181.040878 
	C420.335236,180.263596 420.390686,179.486328 420.709839,178.029388 
	C421.783386,176.896912 422.577850,176.081833 423.405487,176.046646 
	C432.977570,175.639709 442.554718,175.350769 452.130493,175.030502 
z"/>
<path fill="#7C63D3" opacity="1.000000" stroke="none" 
	d="
M482.566650,296.850037 
	C470.281647,294.567017 458.128845,294.429962 445.488068,296.047089 
	C444.880707,293.927277 444.960938,292.046539 447.960236,292.088531 
	C459.756165,292.253723 471.553040,292.353638 483.670349,292.737305 
	C483.584015,294.201233 483.176910,295.405670 482.566650,296.850037 
z"/>
<path fill="#F89E21" opacity="1.000000" stroke="none" 
	d="
M538.017334,268.162262 
	C538.358154,263.697388 538.698975,259.232544 539.074463,254.292114 
	C542.506287,258.850189 545.903564,263.883850 549.490845,269.199127 
	C545.658630,271.762390 542.245239,274.045471 538.586304,276.602356 
	C538.054504,276.983185 537.758789,277.037323 537.226562,276.640564 
	C537.338989,273.549133 537.678162,270.855682 538.017334,268.162262 
z"/>
<path fill="#AB99E3" opacity="1.000000" stroke="none" 
	d="
M461.948364,315.844574 
	C467.106140,313.966919 472.263947,312.089233 477.754456,310.049255 
	C481.972473,309.852814 485.752197,309.982849 486.534088,316.003632 
	C481.499481,316.003632 476.690948,316.003632 471.140198,316.035950 
	C470.216431,316.063324 470.034851,316.058380 469.418579,316.052124 
	C466.638702,315.982056 464.293518,315.913300 461.948364,315.844574 
z"/>
<path fill="#F3EFF2" opacity="1.000000" stroke="none" 
	d="
M510.426086,212.025177 
	C511.548828,212.649338 512.628357,214.010757 513.287720,213.830994 
	C515.145874,213.324341 516.831360,212.184326 518.903015,211.122223 
	C520.140259,211.999374 521.059448,213.048264 522.121094,214.357880 
	C517.105408,220.291245 515.458313,220.641388 509.456299,216.931396 
	C508.720734,216.476715 508.541016,215.122833 508.210541,213.760284 
	C508.941925,212.909592 509.566498,212.484238 510.426086,212.025177 
z"/>
<path fill="#2F4974" opacity="1.000000" stroke="none" 
	d="
M452.479309,175.009567 
	C442.554718,175.350769 432.977570,175.639709 423.405487,176.046646 
	C422.577850,176.081833 421.783386,176.896912 420.755554,177.642059 
	C421.028137,176.432861 416.092896,176.544006 419.739075,174.106277 
	C430.410095,173.672119 440.768829,173.329010 451.588196,172.988831 
	C452.679565,173.270660 453.310364,173.549576 453.941162,173.828506 
	C453.570160,174.215210 453.199158,174.601929 452.479309,175.009567 
z"/>
<path fill="#2F4974" opacity="1.000000" stroke="none" 
	d="
M419.962219,181.091797 
	C430.599152,180.694458 440.918488,180.348053 451.712036,179.975967 
	C452.825195,180.255020 453.464203,180.559738 454.103210,180.864471 
	C453.368256,181.253708 452.633331,181.642944 451.517548,182.033417 
	C441.659760,182.471069 432.182831,182.907501 422.389832,183.602966 
	C421.986206,182.310501 416.885590,185.237106 419.962219,181.091797 
z"/>
<path fill="#F2A3A5" opacity="1.000000" stroke="none" 
	d="
M485.868469,225.430481 
	C485.206573,227.346268 484.404510,228.969620 483.340515,230.798950 
	C481.087646,228.845627 479.096710,226.686356 477.212769,224.643127 
	C478.074921,222.524948 478.804596,220.732193 479.876648,218.098251 
	C481.931366,220.570160 483.829834,222.854095 485.868469,225.430481 
z"/>
<path fill="#43597C" opacity="1.000000" stroke="none" 
	d="
M469.853271,316.053406 
	C470.034851,316.058380 470.216431,316.063324 470.670715,316.065948 
	C470.974457,321.728577 471.005493,327.393524 471.104858,333.520874 
	C471.108704,344.023834 471.044250,354.064392 470.893188,364.568848 
	C470.543274,364.932495 470.322449,364.773315 470.016022,364.038696 
	C469.806000,363.319489 469.724091,363.116852 469.681274,362.453064 
	C469.647034,352.651398 469.573700,343.310852 469.601196,333.514404 
	C469.752441,327.390167 469.802856,321.721771 469.853271,316.053406 
z"/>
<path fill="#7C63D3" opacity="1.000000" stroke="none" 
	d="
M417.172119,272.757385 
	C419.181641,276.681976 421.157684,281.022278 422.711426,285.661285 
	C422.027802,285.955750 421.766449,285.951447 421.505096,285.947113 
	C421.505096,285.947113 421.523407,285.911591 421.544739,285.903870 
	C417.251404,282.643036 416.258881,278.233826 417.172119,272.757385 
z"/>
<path fill="#F3EFF2" opacity="1.000000" stroke="none" 
	d="
M510.712219,206.196716 
	C511.015381,206.602859 511.135529,207.145309 511.004517,207.779816 
	C510.678650,207.358917 510.603943,206.845978 510.712219,206.196716 
z"/>
<path fill="#7E51AD" opacity="1.000000" stroke="none" 
	d="
M384.243591,286.867615 
	C384.097931,286.552460 384.269684,286.352142 384.658752,286.089600 
	C384.895050,286.146423 384.959076,286.304016 385.052124,286.714783 
	C384.892700,286.959839 384.704315,286.951813 384.243591,286.867615 
z"/>
<path fill="#7C63D3" opacity="1.000000" stroke="none" 
	d="
M270.879639,320.982666 
	C270.879639,320.982666 270.401031,320.995056 270.161804,321.002197 
	C269.922546,321.009308 269.764984,321.191101 269.731262,320.794586 
	C266.213074,317.895233 262.728577,315.392426 259.244110,312.889587 
	C258.513733,308.130951 257.783356,303.372314 257.323120,298.087982 
	C257.835785,297.427124 257.984741,297.223511 258.040131,296.951416 
	C258.040131,296.951416 258.024109,297.026459 258.415100,297.057587 
	C268.686249,294.929749 278.381348,296.537476 288.351196,298.657166 
	C289.486145,298.957733 290.327698,299.126617 291.438660,299.479370 
	C295.104645,301.578247 299.360870,302.779663 301.687531,305.582733 
	C304.838409,309.378815 306.509491,314.403168 308.893341,319.281921 
	C309.956635,322.450867 310.942017,325.238495 311.937256,328.417572 
	C314.192230,336.947327 316.437286,345.085632 318.799561,353.648804 
	C316.333801,353.881470 315.048645,354.002747 313.371002,354.088898 
	C310.158722,354.694489 307.338898,355.335205 304.198547,356.009338 
	C302.783508,355.400269 301.152466,355.018890 300.690186,354.068848 
	C298.971008,350.535339 297.636047,346.814911 296.113922,342.751953 
	C294.207184,336.214142 292.221313,330.122406 290.530640,323.949860 
	C289.675323,320.827148 288.020172,319.494568 284.392456,320.109314 
	C279.586060,320.417358 275.232849,320.700012 270.879639,320.982666 
z"/>
<path fill="#F89E21" opacity="1.000000" stroke="none" 
	d="
M288.057770,298.525452 
	C278.381348,296.537476 268.686249,294.929749 258.377014,297.052979 
	C261.830872,280.935059 267.123993,265.663605 282.362122,255.464813 
	C285.979279,255.494873 288.923157,255.782745 291.867035,256.070618 
	C295.959320,260.128326 299.996826,264.243073 304.155365,268.231720 
	C312.562225,276.295135 313.338379,274.122498 320.017456,269.263000 
	C322.329224,270.898285 324.037964,272.612457 325.746674,274.326630 
	C325.504181,276.320953 325.261688,278.315247 325.090851,281.040436 
	C325.025330,283.409882 324.888123,285.048492 324.750946,286.687073 
	C321.144623,286.736725 317.538300,286.786407 313.175232,286.614105 
	C310.923798,286.292694 309.429138,286.193298 307.512024,286.051758 
	C302.894318,285.392212 298.699005,284.774811 293.782104,284.051239 
	C291.901520,288.806366 289.979645,293.665894 288.057770,298.525452 
z"/>
<path fill="#F2A3A5" opacity="1.000000" stroke="none" 
	d="
M291.875122,255.720154 
	C288.923157,255.782745 285.979279,255.494873 282.615845,255.251038 
	C282.268372,254.319382 282.141632,253.275345 282.449188,252.380569 
	C283.435699,249.510269 283.681244,247.290268 279.776367,246.457306 
	C278.661469,246.219482 277.871765,244.457092 276.923706,242.659241 
	C279.013489,241.478928 281.112518,241.033142 283.211548,240.587372 
	C283.410431,241.135117 283.609314,241.682861 283.808228,242.230606 
	C286.557190,237.421646 285.058716,225.813751 295.910217,233.974594 
	C299.653168,241.292191 298.829529,245.396011 292.943390,251.075180 
	C292.045074,251.941925 292.210052,253.910660 291.875122,255.720154 
z"/>
<path fill="#19274E" opacity="1.000000" stroke="none" 
	d="
M295.985840,233.608582 
	C285.058716,225.813751 286.557190,237.421646 283.808228,242.230606 
	C283.609314,241.682861 283.410431,241.135117 283.211548,240.587372 
	C281.112518,241.033142 279.013489,241.478928 276.870026,242.269409 
	C274.898224,241.127533 272.640808,239.911011 271.139374,238.075928 
	C269.730804,236.354309 268.224762,233.916473 268.363953,231.904663 
	C268.592163,228.605804 269.669556,224.818817 274.115082,224.716354 
	C276.128998,224.669952 278.167053,225.670868 280.095734,226.674072 
	C289.373505,224.690918 293.425476,226.212067 295.985840,233.608582 
z"/>
<path fill="#7E51AD" opacity="1.000000" stroke="none" 
	d="
M347.437195,256.455505 
	C350.060516,256.067566 352.594025,256.102264 355.431610,256.484863 
	C353.089783,263.363068 350.496857,269.915741 347.748596,276.402618 
	C347.262329,277.550415 346.128387,278.423828 345.293549,279.423920 
	C345.978180,271.908661 346.662811,264.393372 347.437195,256.455505 
z"/>
<path fill="#F2A3A5" opacity="1.000000" stroke="none" 
	d="
M325.838562,273.921783 
	C324.037964,272.612457 322.329224,270.898285 320.299255,269.054565 
	C324.128845,267.102356 328.154419,264.846741 332.471191,263.597290 
	C335.782593,262.638855 338.834625,263.909912 339.794800,268.940491 
	C336.925171,269.638458 334.099945,270.177917 331.376343,271.038849 
	C329.488556,271.635559 327.740814,272.675201 325.838562,273.921783 
z"/>
<path fill="#DDCFF7" opacity="1.000000" stroke="none" 
	d="
M345.207275,279.861938 
	C346.128387,278.423828 347.262329,277.550415 347.748596,276.402618 
	C350.496857,269.915741 353.089783,263.363068 355.866516,256.516205 
	C356.775818,256.170532 357.554291,256.141418 358.724457,256.142029 
	C355.894348,264.638885 352.668121,273.104340 349.454803,281.574677 
	C348.870422,283.115143 348.338867,284.675659 347.707428,286.607819 
	C346.615112,286.968018 345.598297,286.947266 344.230103,286.605164 
	C343.878571,285.876892 343.878357,285.469971 343.878174,285.063049 
	C344.292450,283.475372 344.706726,281.887665 345.207275,279.861938 
z"/>
<path fill="#B59CF5" opacity="1.000000" stroke="none" 
	d="
M259.155151,313.253693 
	C262.728577,315.392426 266.213074,317.895233 269.625702,320.736877 
	C265.918854,321.011871 262.270386,321.109711 258.655182,320.808380 
	C257.108551,320.679443 255.631210,319.718964 254.122375,319.136414 
	C255.169342,317.795929 256.178070,316.422882 257.280487,315.129700 
	C257.779816,314.543976 258.465179,314.116852 259.155151,313.253693 
z"/>
<path fill="#F2A3A5" opacity="1.000000" stroke="none" 
	d="
M325.108795,286.777283 
	C324.888123,285.048492 325.025330,283.409882 325.179199,281.359222 
	C330.197845,279.206116 334.358459,280.614319 337.649109,284.674622 
	C334.838348,285.412689 332.278198,285.817200 329.718018,286.221680 
	C328.300903,286.436951 326.883759,286.652252 325.108795,286.777283 
z"/>
<path fill="#D95B79" opacity="1.000000" stroke="none" 
	d="
M344.790527,247.531586 
	C348.490479,245.979233 352.146454,244.766006 355.802429,243.552780 
	C356.070435,244.279938 356.338440,245.007080 356.606445,245.734238 
	C352.819946,247.120270 349.033478,248.506302 344.826904,249.893845 
	C344.520050,249.220474 344.633331,248.545593 344.790527,247.531586 
z"/>
<path fill="#2F4974" opacity="1.000000" stroke="none" 
	d="
M330.052307,286.491730 
	C332.278198,285.817200 334.838348,285.412689 337.867920,284.951294 
	C339.915863,284.944031 341.494415,284.993652 343.475586,285.053162 
	C343.878357,285.469971 343.878571,285.876892 343.842896,286.587524 
	C339.333527,286.848083 334.860077,286.804932 330.052307,286.491730 
z"/>
<path fill="#F89E21" opacity="1.000000" stroke="none" 
	d="
M257.835449,296.969208 
	C257.984741,297.223511 257.835785,297.427124 257.408813,297.622467 
	C257.269958,297.398254 257.405457,297.166382 257.835449,296.969208 
z"/>
<path fill="#0b0418" opacity="1.000000" stroke="none" 
	d="
M351.226868,177.315979 
	C347.521667,177.914246 343.825897,178.950546 340.109528,179.030518 
	C327.847260,179.294357 319.241821,169.589539 319.990662,156.949310 
	C320.718536,144.662827 332.745117,138.444122 342.000793,139.753220 
	C354.458374,141.515182 362.385223,152.295120 359.369934,163.961304 
	C358.420654,167.634018 355.884827,170.896667 354.043091,174.674561 
	C354.011017,175.002121 354.045044,175.017593 353.721069,174.994415 
	C353.004761,175.418198 352.612427,175.865158 352.193481,176.247833 
	C352.166901,176.183517 352.282776,176.260620 351.988342,176.271469 
	C351.531982,176.608078 351.370056,176.933853 351.203247,177.276489 
	C351.198303,177.293335 351.226868,177.315979 351.226868,177.315979 
z"/>
<path fill="#27304C" opacity="1.000000" stroke="none" 
	d="
M370.088379,183.110657 
	C367.562164,183.605865 365.263367,184.238510 363.059723,183.998367 
	C359.700714,183.632339 356.920441,183.417038 355.763336,187.595810 
	C355.566833,188.305435 353.339142,188.452606 351.679871,188.945648 
	C348.513702,185.417389 348.725006,181.739853 351.152588,177.666626 
	C351.226868,177.315979 351.198303,177.293335 351.476562,177.237442 
	C351.930817,176.874573 352.106812,176.567596 352.282776,176.260620 
	C352.282776,176.260620 352.166901,176.183517 352.492615,176.207367 
	C353.227203,175.826691 353.636108,175.422134 354.045044,175.017578 
	C354.045044,175.017593 354.011017,175.002121 354.014435,175.020981 
	C357.968903,174.235138 362.240326,176.139709 366.087555,173.190445 
	C366.885193,172.578995 370.957550,174.221542 371.232391,175.371933 
	C371.780548,177.666458 370.741730,180.340134 370.088379,183.110657 
z"/>
<path fill="#DDCFF7" opacity="1.000000" stroke="none" 
	d="
M541.577393,357.955811 
	C542.341736,359.806763 542.734192,361.574738 543.212036,363.727783 
	C543.105347,366.445435 542.913208,368.778046 542.870605,371.404816 
	C531.629333,371.715271 520.238525,371.731567 508.610718,371.484680 
	C509.686188,371.030945 510.998657,370.840363 513.024231,370.546234 
	C512.641296,368.077087 512.257263,365.600830 511.926880,362.771545 
	C512.307068,361.067047 512.633545,359.715515 512.959961,358.363953 
	C516.098206,358.211121 519.236389,358.058289 522.563843,357.896271 
	C521.880371,350.811005 521.218567,343.950897 520.983765,336.468567 
	C524.587097,335.227722 527.763306,334.609100 530.939575,333.990509 
	C533.075806,340.761292 535.069458,347.583130 537.459778,354.262970 
	C537.983215,355.725739 539.919739,356.682831 541.577393,357.955811 
z"/>
<path fill="#0b0418" opacity="1.000000" stroke="none" 
	d="
M530.953491,333.596588 
	C527.763306,334.609100 524.587097,335.227722 521.034912,336.017609 
	C519.774902,322.976166 518.883301,309.763916 518.013489,296.550262 
	C517.853394,294.118378 517.780762,291.680786 518.676758,288.938141 
	C522.773682,303.692993 526.870544,318.447815 530.953491,333.596588 
z"/>
<path fill="#F89E21" opacity="1.000000" stroke="none" 
	d="
M527.110474,260.453552 
	C528.323975,263.118652 529.285767,266.022980 530.637329,269.410278 
	C530.945923,273.845764 530.864746,277.798279 530.783569,281.750793 
	C528.773254,282.830963 526.763000,283.911133 524.212280,285.281677 
	C521.790283,281.426514 519.183105,277.690399 517.024353,273.711060 
	C515.256226,270.451843 516.618591,267.618164 519.441040,265.567749 
	C521.832214,263.830688 524.380188,262.309479 527.110474,260.453552 
z"/>
<path fill="#F2A3A5" opacity="1.000000" stroke="none" 
	d="
M531.127197,281.834869 
	C530.864746,277.798279 530.945923,273.845764 531.002563,269.481781 
	C533.059753,268.746796 535.141602,268.423279 537.620361,268.131012 
	C537.678162,270.855682 537.338989,273.549133 537.000793,276.662231 
	C535.158142,278.694244 533.314453,280.306610 531.127197,281.834869 
z"/>
<path fill="#F2A3A5" opacity="1.000000" stroke="none" 
	d="
M512.519470,358.276825 
	C512.633545,359.715515 512.307068,361.067047 511.633728,362.908142 
	C508.813568,363.878174 506.340210,364.358643 503.866852,364.839111 
	C503.899445,362.930634 503.932068,361.022156 503.966217,358.706879 
	C506.671478,358.263245 509.375214,358.226471 512.519470,358.276825 
z"/>
<path fill="#0b0418" opacity="1.000000" stroke="none" 
	d="
M459.225769,97.842796 
	C461.063904,104.252800 459.191589,108.107040 453.457977,109.716057 
	C448.221985,111.185425 443.777283,108.090401 442.463623,101.375420 
	C448.329193,99.935036 453.777466,98.888916 459.225769,97.842796 
z"/>
<path fill="#0b0418" opacity="1.000000" stroke="none" 
	d="
M459.159546,97.484108 
	C453.777466,98.888916 448.329193,99.935036 442.484070,101.005722 
	C441.694305,96.128822 444.037140,92.954445 448.710999,92.159302 
	C453.063019,91.418915 457.420502,91.754074 459.159546,97.484108 
z"/>
<path fill="#0b0418" opacity="1.000000" stroke="none" 
	d="
M431.820251,111.595436 
	C430.970093,111.939041 429.883881,112.044708 428.390991,112.101807 
	C429.184265,111.821327 430.384186,111.589409 431.820251,111.595436 
z"/>
<path fill="#0b0418" opacity="1.000000" stroke="none" 
	d="
M409.096008,370.588135 
	C398.959961,370.975372 388.995026,371.077637 378.468872,370.753204 
	C374.709259,368.776581 371.473297,367.298004 368.330688,365.642273 
	C367.044586,364.964691 365.960358,363.903992 364.836670,362.631287 
	C364.931122,360.940979 364.973175,359.637054 365.428314,358.243988 
	C366.515564,356.890594 367.703644,355.652893 367.770660,354.357239 
	C368.002045,349.884888 367.842377,345.392334 367.923859,340.559875 
	C370.710480,334.471680 373.404846,328.731140 376.560852,322.992493 
	C383.682434,323.663727 390.342438,324.333099 396.677551,325.001221 
	C395.584167,325.059143 394.815735,325.118286 394.047272,325.177399 
	C394.112732,325.445709 394.178192,325.714020 394.243652,325.982330 
	C395.161926,325.654083 396.080200,325.325806 397.381531,324.945984 
	C403.154327,325.260101 408.544098,325.625793 414.003235,326.456360 
	C414.047211,336.732910 413.919434,346.546570 414.108093,356.354126 
	C414.135986,357.804626 415.659760,359.226349 416.491486,360.661407 
	C414.083374,363.875336 411.675262,367.089233 409.096008,370.588135 
z"/>
<path fill="#D95B79" opacity="1.000000" stroke="none" 
	d="
M416.833862,360.583008 
	C415.659760,359.226349 414.135986,357.804626 414.108093,356.354126 
	C413.919434,346.546570 414.047211,336.732910 414.072357,326.003540 
	C415.136475,319.273163 415.308533,313.098724 417.482391,307.735718 
	C420.458191,300.394348 427.875641,298.511169 435.429260,296.996552 
	C437.887390,296.954803 439.912140,296.867981 441.936859,296.781189 
	C441.941650,297.904877 441.946411,299.028534 441.555908,300.624573 
	C430.240906,306.233002 425.479645,312.686707 427.266479,322.539459 
	C428.170593,327.524933 431.629059,332.047180 433.664978,337.074585 
	C432.245453,344.000214 431.222137,350.657166 429.835968,357.237640 
	C429.550690,358.591827 427.910706,359.660645 426.895111,360.860992 
	C423.655487,360.742188 420.415863,360.623383 416.833862,360.583008 
z"/>
<path fill="#0b0418" opacity="1.000000" stroke="none" 
	d="
M426.909485,361.310669 
	C427.910706,359.660645 429.550690,358.591827 429.835968,357.237640 
	C431.222137,350.657166 432.245453,344.000214 433.891907,337.344971 
	C436.911713,340.625427 439.436798,343.931274 441.961914,347.237122 
	C441.954498,355.081726 441.947083,362.926331 441.920227,371.215393 
	C437.603424,371.699493 433.306030,371.739197 428.551544,371.805969 
	C427.704224,368.475494 427.314026,365.117920 426.909485,361.310669 
z"/>
<path fill="#0b0418" opacity="1.000000" stroke="none" 
	d="
M469.500366,333.970276 
	C469.573700,343.310852 469.647034,352.651398 469.455750,362.481934 
	C469.191132,362.971863 468.803101,363.209778 468.803101,363.209778 
	C467.655151,361.971069 466.507233,360.732361 465.177032,359.231689 
	C467.511475,357.260162 467.445679,355.398285 465.918030,352.854462 
	C461.923981,346.203430 458.208557,339.385040 454.702148,332.313782 
	C459.848267,332.652893 464.674316,333.311584 469.500366,333.970276 
z"/>
<path fill="#DDCFF7" opacity="1.000000" stroke="none" 
	d="
M445.043610,353.478027 
	C447.289948,356.012787 449.441376,359.078064 451.788574,361.985229 
	C452.849304,363.299011 454.299530,364.298279 455.901703,365.549316 
	C456.517029,367.483551 456.803680,369.308716 456.981873,371.464539 
	C453.245850,371.781158 449.618225,371.767120 445.540039,371.711609 
	C445.069122,365.761475 445.048828,359.852783 445.043610,353.478027 
z"/>
<path fill="#AB99E3" opacity="1.000000" stroke="none" 
	d="
M471.176361,366.241333 
	C475.636108,366.361420 481.090057,364.454041 483.096344,371.260101 
	C478.109497,371.686096 473.059570,371.769684 467.549622,371.866821 
	C468.457428,370.101807 469.825256,368.323242 471.176361,366.241333 
z"/>
<path fill="#AB99E3" opacity="1.000000" stroke="none" 
	d="
M468.906250,363.472137 
	C468.803101,363.209778 469.191132,362.971863 469.416656,362.943024 
	C469.724091,363.116852 469.806000,363.319489 469.942810,363.846252 
	C469.668243,364.025055 469.338806,363.879761 468.906250,363.472137 
z"/>
<path fill="#DDCFF7" opacity="1.000000" stroke="none" 
	d="
M296.156830,343.164642 
	C297.636047,346.814911 298.971008,350.535339 300.690186,354.068848 
	C301.152466,355.018890 302.783508,355.400269 304.302795,356.393921 
	C305.213867,358.242645 305.700165,359.740173 306.186432,361.237701 
	C305.765961,364.472687 305.345490,367.707703 304.885193,371.360596 
	C298.234680,371.793365 291.623993,371.808258 284.556763,371.898865 
	C283.662628,366.925568 279.678497,362.114288 283.434937,356.174316 
	C284.525604,354.253601 285.264893,352.966278 286.283691,351.897034 
	C287.851257,353.642181 289.065063,354.734772 290.541199,352.209137 
	C292.331238,349.146484 294.277924,346.175354 296.156830,343.164642 
z"/>
<path fill="#0b0418" opacity="1.000000" stroke="none" 
	d="
M271.463989,354.727844 
	C271.137543,346.869995 271.092163,338.888184 271.558746,330.447693 
	C275.019867,329.987976 277.969055,329.986969 280.893188,330.348236 
	C279.259155,334.543488 277.486664,338.320770 276.149139,342.246216 
	C275.787109,343.308746 276.741241,344.819702 277.066284,346.483154 
	C276.696564,348.223785 276.351807,349.606079 276.007019,350.988373 
	C274.586365,352.193542 273.165680,353.398712 271.463989,354.727844 
z"/>
<path fill="#F2A3A5" opacity="1.000000" stroke="none" 
	d="
M276.324707,351.109467 
	C276.351807,349.606079 276.696564,348.223785 277.406982,346.494843 
	C280.516479,347.991760 283.260345,349.835327 286.004181,351.678925 
	C285.264893,352.966278 284.525604,354.253601 283.571136,355.777130 
	C281.118073,354.419067 278.880219,352.824829 276.324707,351.109467 
z"/>
<path fill="#0b0418" opacity="1.000000" stroke="none" 
	d="
M313.763489,354.124023 
	C315.048645,354.002747 316.333801,353.881470 318.799561,353.648804 
	C316.437286,345.085632 314.192230,336.947327 312.375061,328.410217 
	C319.854523,327.335480 326.906097,326.659607 333.957672,325.983704 
	C333.960754,340.907990 333.963837,355.832245 333.945801,371.199829 
	C330.958984,371.684601 327.993317,371.726105 324.584961,371.775726 
	C322.239532,370.113464 320.186829,368.581055 318.481750,366.728699 
	C317.134857,365.265472 316.215271,363.408875 315.019257,360.991974 
	C314.542908,358.212677 314.153198,356.168335 313.763489,354.124023 
z"/>
<path fill="#F2A3A5" opacity="1.000000" stroke="none" 
	d="
M313.371002,354.088898 
	C314.153198,356.168335 314.542908,358.212677 314.924438,360.645874 
	C312.295654,361.084961 309.674988,361.135193 306.620392,361.211548 
	C305.700165,359.740173 305.213867,358.242645 304.623352,356.360535 
	C307.338898,355.335205 310.158722,354.694489 313.371002,354.088898 
z"/>
<path fill="#DDCFF7" opacity="1.000000" stroke="none" 
	d="
M337.550415,371.711731 
	C337.096527,356.401917 337.102905,341.133728 337.578979,325.418762 
	C342.059631,324.641144 346.070587,324.310303 350.276855,324.326782 
	C351.267487,333.407074 352.062805,342.140045 352.585876,350.684143 
	C351.226929,350.434082 349.555206,349.899200 349.154694,350.393768 
	C347.415497,352.541443 346.046844,354.989197 344.677399,357.119659 
	C349.228607,361.897888 353.512085,366.394989 357.795532,370.892090 
	C351.200562,371.179199 344.605621,371.466278 337.550415,371.711731 
z"/>
<path fill="#163B5F" opacity="1.000000" stroke="none" 
	d="
M358.120392,370.927368 
	C353.512085,366.394989 349.228607,361.897888 344.677399,357.119659 
	C346.046844,354.989197 347.415497,352.541443 349.154694,350.393768 
	C349.555206,349.899200 351.226929,350.434082 352.706177,351.065704 
	C355.133087,353.346558 352.027252,358.050568 356.899597,358.519806 
	C357.198120,364.781433 361.794220,362.359802 364.784271,363.017609 
	C365.960358,363.903992 367.044586,364.964691 368.330688,365.642273 
	C371.473297,367.298004 374.709259,368.776581 378.082275,370.637573 
	C371.652985,370.953308 365.049133,370.957977 358.120392,370.927368 
z"/>
<path fill="#E56A82" opacity="1.000000" stroke="none" 
	d="
M503.574646,364.996643 
	C506.340210,364.358643 508.813568,363.878174 511.580078,363.261169 
	C512.257263,365.600830 512.641296,368.077087 513.024231,370.546234 
	C510.998657,370.840363 509.686188,371.030945 508.138153,371.442444 
	C504.635895,371.740570 501.369232,371.817719 497.604553,371.570251 
	C497.062225,370.856384 497.017853,370.467133 496.973450,370.077881 
	C499.076447,368.436646 501.179443,366.795441 503.574646,364.996643 
z"/>
<path fill="#AB99E3" opacity="1.000000" stroke="none" 
	d="
M496.727844,370.159973 
	C497.017853,370.467133 497.062225,370.856384 497.160034,371.535553 
	C496.709625,371.844086 496.205811,371.862732 495.342590,371.768433 
	C495.482849,371.184357 495.982544,370.713196 496.727844,370.159973 
z"/>
<path fill="#0b0418" opacity="1.000000" stroke="none" 
	d="
M280.918213,329.985962 
	C277.969055,329.986969 275.019867,329.987976 271.631775,329.982666 
	C271.124207,327.278931 271.055603,324.581543 270.933319,321.433411 
	C275.232849,320.700012 279.586060,320.417358 284.403381,320.468506 
	C283.551056,323.863525 282.234619,326.924744 280.918213,329.985962 
z"/>
<path fill="#F2A3A5" opacity="1.000000" stroke="none" 
	d="
M364.140747,229.019333 
	C367.051788,227.629700 369.764679,226.523621 372.477539,225.417526 
	C372.707947,225.777054 372.938385,226.136581 373.168793,226.496109 
	C372.634338,227.353348 372.099854,228.210602 371.391571,229.346649 
	C372.541107,229.843079 373.627533,230.312241 374.764648,230.803314 
	C372.687592,235.400040 369.533875,238.091660 364.405945,238.816025 
	C362.513397,239.235504 360.945770,239.472244 358.798615,239.796524 
	C359.223724,237.570450 359.666656,235.250961 360.367462,232.399353 
	C360.861481,231.630035 361.043945,231.356934 361.172729,231.047943 
	C362.096008,230.466263 363.019287,229.884567 364.140747,229.019333 
z"/>
<path fill="#D95B79" opacity="1.000000" stroke="none" 
	d="
M351.004852,229.566528 
	C351.324219,230.809158 351.621155,231.688873 351.965424,232.708786 
	C350.369629,233.117828 348.821228,233.514740 346.807129,234.031006 
	C347.342834,229.555267 347.836609,225.429840 348.505920,219.837830 
	C349.553314,223.798965 350.267883,226.501297 351.004852,229.566528 
z"/>
<path fill="#D95B79" opacity="1.000000" stroke="none" 
	d="
M360.795044,231.030701 
	C361.043945,231.356934 360.861481,231.630035 360.427246,232.013199 
	C359.176605,232.020050 358.124023,231.880936 357.071442,231.741821 
	C357.086487,231.499039 357.101532,231.256241 357.116577,231.013443 
	C358.216827,231.013443 359.317078,231.013443 360.795044,231.030701 
z"/>
<path fill="#F3EFF2" opacity="1.000000" stroke="none" 
	d="
M433.098480,168.164734 
	C432.621613,168.228683 432.144714,168.292633 431.316956,168.241745 
	C428.680603,159.274979 426.324158,150.440231 424.175262,141.555267 
	C423.789886,139.961929 424.261597,138.161316 424.337585,136.456406 
	C426.062592,136.648544 427.931580,136.481369 429.484131,137.103714 
	C433.339722,138.649200 436.853333,138.537628 440.446106,136.350601 
	C441.572021,135.665222 443.921478,135.086273 444.381744,135.615234 
	C445.283875,136.651886 445.748688,138.578934 445.526062,140.001572 
	C444.113251,149.029663 442.463135,158.020584 440.842651,167.431732 
	C440.333771,167.925003 439.873566,168.010300 439.135925,167.595093 
	C440.484039,157.230057 442.109558,147.365540 443.917053,136.396561 
	C437.766479,141.189606 432.092957,140.873505 425.472717,137.876099 
	C428.179932,148.628876 430.639221,158.396805 433.098480,168.164734 
z"/>
<path fill="#F2A3A5" opacity="1.000000" stroke="none" 
	d="
M453.246307,283.188446 
	C453.163391,282.784424 453.080475,282.380371 452.966003,281.671204 
	C455.573578,276.607208 460.256348,275.745209 465.524384,275.328369 
	C466.346283,275.928497 466.659912,276.230164 466.973511,276.531830 
	C466.973511,276.531830 467.004913,276.502472 466.966827,276.865936 
	C467.281281,277.829956 467.633820,278.430511 467.986389,279.031036 
	C467.986389,279.031036 468.003052,278.995789 467.942932,279.303101 
	C467.859314,280.018890 467.835815,280.427399 467.812286,280.835876 
	C465.301605,281.356537 462.790894,281.877167 459.598907,282.697205 
	C457.027161,283.060516 455.136749,283.124481 453.246307,283.188446 
z"/>
<path fill="#27304C" opacity="1.000000" stroke="none" 
	d="
M453.304993,283.502563 
	C455.136749,283.124481 457.027161,283.060516 459.310242,282.945618 
	C461.363922,282.964722 463.140045,282.702789 464.644623,283.224304 
	C465.609528,283.558685 466.174133,285.047943 466.857666,286.422852 
	C462.951355,286.829712 459.105530,286.833252 454.822937,286.826874 
	C454.045349,285.816864 453.704498,284.816772 453.304993,283.502563 
z"/>
<path fill="#603994" opacity="1.000000" stroke="none" 
	d="
M470.086182,282.919800 
	C474.113708,282.691040 478.141266,282.462280 482.168793,282.233551 
	C482.195496,282.785278 482.222198,283.337036 482.248901,283.888794 
	C478.174469,283.888794 474.100067,283.888794 469.994934,283.459534 
	C469.964264,283.030273 470.086182,282.919800 470.086182,282.919800 
z"/>
<path fill="#603994" opacity="1.000000" stroke="none" 
	d="
M467.979370,281.102173 
	C467.835815,280.427399 467.859314,280.018890 467.923645,279.306091 
	C468.662354,280.079437 469.360291,281.157104 470.072205,282.577271 
	C470.086182,282.919800 469.964264,283.030273 469.900391,283.087280 
	C469.273163,282.552338 468.709839,281.960419 467.979370,281.102173 
z"/>
<path fill="#603994" opacity="1.000000" stroke="none" 
	d="
M466.709503,274.646210 
	C467.703430,274.379608 468.697327,274.113037 469.691254,273.846436 
	C469.761841,274.085876 469.832428,274.325348 469.903015,274.564789 
	C469.218292,274.755646 468.533600,274.946472 467.402283,275.034302 
	C466.955719,274.931244 466.709503,274.646210 466.709503,274.646210 
z"/>
<path fill="#603994" opacity="1.000000" stroke="none" 
	d="
M467.992676,278.670197 
	C467.633820,278.430511 467.281281,277.829956 466.945648,276.862427 
	C467.308014,277.100098 467.653503,277.704712 467.992676,278.670197 
z"/>
<path fill="#603994" opacity="1.000000" stroke="none" 
	d="
M467.039490,276.200348 
	C466.659912,276.230164 466.346283,275.928497 465.912903,275.312897 
	C465.793152,274.998962 466.253204,274.824921 466.481354,274.735565 
	C466.709503,274.646210 466.955719,274.931244 467.088562,275.067078 
	C467.182770,275.424896 467.144135,275.646881 467.039490,276.200348 
z"/>
<path fill="#0b0418" opacity="1.000000" stroke="none" 
	d="
M434.995819,296.951508 
	C427.875641,298.511169 420.458191,300.394348 417.482391,307.735718 
	C415.308533,313.098724 415.136475,319.273163 414.002991,325.538696 
	C408.544098,325.625793 403.154327,325.260101 397.382263,324.947205 
	C397.000000,325.000000 397.002441,325.002441 397.002441,325.002441 
	C390.342438,324.333099 383.682434,323.663727 376.576233,322.632263 
	C379.966522,312.784088 385.512238,303.830353 385.227173,293.060638 
	C401.556366,293.009430 417.885590,292.958191 434.682281,293.339905 
	C435.098450,294.832397 435.047150,295.891968 434.995819,296.951508 
z"/>
<path fill="#7E51AD" opacity="1.000000" stroke="none" 
	d="
M356.875946,358.121918 
	C352.027252,358.050568 355.133087,353.346558 352.978394,351.254578 
	C352.062805,342.140045 351.267487,333.407074 350.311157,323.881592 
	C349.070801,313.083954 347.991425,303.078827 346.912079,293.073669 
	C354.012939,292.797668 361.113831,292.521637 368.641693,292.702332 
	C368.379700,298.994415 367.366150,304.814148 367.084839,310.669098 
	C366.741974,317.805817 366.939026,324.973389 367.057892,332.125031 
	C367.106598,335.056000 367.561462,337.980194 367.831604,340.907471 
	C367.842377,345.392334 368.002045,349.884888 367.770660,354.357239 
	C367.703644,355.652893 366.515564,356.890594 364.987305,358.162109 
	C361.714111,358.153534 359.295013,358.137726 356.875946,358.121918 
z"/>
<path fill="#0b0418" opacity="1.000000" stroke="none" 
	d="
M333.988220,325.517334 
	C326.906097,326.659607 319.854523,327.335480 312.365173,328.018738 
	C310.942017,325.238495 309.956635,322.450867 309.000458,318.915771 
	C312.652649,306.195648 309.456757,301.096008 297.555450,299.878723 
	C295.429077,299.661255 293.298065,299.488770 291.169220,299.295502 
	C290.327698,299.126617 289.486145,298.957733 288.351196,298.657166 
	C289.979645,293.665894 291.901520,288.806366 293.782104,284.051239 
	C298.699005,284.774811 302.894318,285.392212 307.568451,286.227142 
	C308.047272,286.444672 308.153595,286.797516 308.153595,286.797485 
	C305.158356,286.846893 302.127411,286.647064 299.185486,287.068634 
	C298.012634,287.236664 297.036530,288.777832 295.970886,289.693909 
	C297.066406,290.753754 298.140106,292.706421 299.260834,292.733795 
	C309.243652,292.977295 319.237640,293.017944 329.221985,292.812317 
	C332.872986,292.737091 334.229309,293.773712 334.126373,297.584412 
	C333.879242,306.734222 334.029083,315.894775 333.988220,325.517334 
z"/>
<path fill="#603994" opacity="1.000000" stroke="none" 
	d="
M367.923859,340.559875 
	C367.561462,337.980194 367.106598,335.056000 367.057892,332.125031 
	C366.939026,324.973389 366.741974,317.805817 367.084839,310.669098 
	C367.366150,304.814148 368.379700,298.994415 369.101868,292.829590 
	C374.263062,292.528168 379.391083,292.556183 384.873138,292.822449 
	C385.512238,303.830353 379.966522,312.784088 376.114624,322.630371 
	C373.404846,328.731140 370.710480,334.471680 367.923859,340.559875 
z"/>
<path fill="#E46981" opacity="1.000000" stroke="none" 
	d="
M441.977142,346.746826 
	C439.436798,343.931274 436.911713,340.625427 434.159637,337.049194 
	C431.629059,332.047180 428.170593,327.524933 427.266479,322.539459 
	C425.479645,312.686707 430.240906,306.233002 441.500458,301.042542 
	C441.891022,316.077606 441.941711,331.167084 441.977142,346.746826 
z"/>
<path fill="#0b0418" opacity="1.000000" stroke="none" 
	d="
M346.462036,293.051697 
	C347.991425,303.078827 349.070801,313.083954 350.115845,323.534302 
	C346.070587,324.310303 342.059631,324.641144 337.629272,324.947937 
	C337.209900,314.500763 337.209900,304.077606 337.209900,293.029724 
	C340.468750,293.029724 343.240387,293.029724 346.462036,293.051697 
z"/>
<path fill="#7C63D3" opacity="1.000000" stroke="none" 
	d="
M435.429260,296.996552 
	C435.047150,295.891968 435.098450,294.832397 435.160767,293.374207 
	C438.226288,292.222565 442.005615,289.840820 441.959229,296.393555 
	C439.912140,296.867981 437.887390,296.954803 435.429260,296.996552 
z"/>
<path fill="#F2A3A5" opacity="1.000000" stroke="none" 
	d="
M308.557587,286.834595 
	C308.153595,286.797516 308.047272,286.444672 307.990845,286.269287 
	C309.429138,286.193298 310.923798,286.292694 312.719543,286.603821 
	C311.667603,286.834259 310.314575,286.852966 308.557587,286.834595 
z"/>
<path fill="#0b0418" opacity="1.000000" stroke="none" 
	d="
M421.734131,286.129395 
	C421.766449,285.951447 422.027802,285.955750 422.666809,286.065948 
	C423.044525,286.171875 423.016571,286.481506 423.008545,286.634796 
	C422.654755,286.629303 422.308990,286.470490 421.734131,286.129395 
z"/>
<path fill="#0b0418" opacity="1.000000" stroke="none" 
	d="
M469.601196,333.514404 
	C464.674316,333.311584 459.848267,332.652893 454.615204,331.986694 
	C451.994446,328.172546 449.780731,324.365936 447.043427,319.658997 
	C452.171753,318.301270 456.659821,317.113068 461.548126,315.884705 
	C464.293518,315.913300 466.638702,315.982056 469.418579,316.052124 
	C469.802856,321.721771 469.752441,327.390167 469.601196,333.514404 
z"/>
<path fill="#FED76E" opacity="1.000000" stroke="none" 
	d="
M433.503967,168.209808 
	C430.639221,158.396805 428.179932,148.628876 425.472717,137.876099 
	C432.092957,140.873505 437.766479,141.189606 443.917053,136.396561 
	C442.109558,147.365540 440.484039,157.230057 438.791626,167.517899 
	C437.119598,168.045761 435.514526,168.150314 433.503967,168.209808 
z"/>
<path fill="#0b0418" opacity="1.000000" stroke="none" 
	d="
M415.480743,205.435394 
	C415.549469,205.396805 415.412018,205.473999 415.480743,205.435394 
z"/>
<path fill="#7E51AD" opacity="1.000000" stroke="none" 
	d="
M280.893188,330.348206 
	C282.234619,326.924744 283.551056,323.863525 284.856567,320.443115 
	C288.020172,319.494568 289.675323,320.827148 290.530640,323.949860 
	C292.221313,330.122406 294.207184,336.214142 296.113922,342.751953 
	C294.277924,346.175354 292.331238,349.146484 290.541199,352.209137 
	C289.065063,354.734772 287.851257,353.642181 286.283691,351.897034 
	C283.260345,349.835327 280.516479,347.991760 277.431946,346.136536 
	C276.741241,344.819702 275.787109,343.308746 276.149139,342.246216 
	C277.486664,338.320770 279.259155,334.543488 280.893188,330.348206 
z"/>
<path fill="#7E51AD" opacity="1.000000" stroke="none" 
	d="
M291.438660,299.479370 
	C293.298065,299.488770 295.429077,299.661255 297.555450,299.878723 
	C309.456757,301.096008 312.652649,306.195648 308.922516,318.534485 
	C306.509491,314.403168 304.838409,309.378815 301.687531,305.582733 
	C299.360870,302.779663 295.104645,301.578247 291.438660,299.479370 
z"/>
<path fill="#B499F6" opacity="1.000000" stroke="none" 
	d="
M353.721069,174.994415 
	C353.636108,175.422134 353.227203,175.826691 352.519196,176.271683 
	C352.612427,175.865158 353.004761,175.418198 353.721069,174.994415 
z"/>
<path fill="#B499F6" opacity="1.000000" stroke="none" 
	d="
M351.988342,176.271469 
	C352.106812,176.567596 351.930817,176.874573 351.481506,177.220581 
	C351.370056,176.933853 351.531982,176.608078 351.988342,176.271469 
z"/>
<path fill="#F2A3A5" opacity="1.000000" stroke="none" 
	d="
M356.899597,358.519806 
	C359.295013,358.137726 361.714111,358.153534 364.574219,358.251221 
	C364.973175,359.637054 364.931122,360.940979 364.836670,362.631287 
	C361.794220,362.359802 357.198120,364.781433 356.899597,358.519806 
z"/>
<path fill="#0b0418" opacity="1.000000" stroke="none" 
	d="
M396.999237,324.998779 
	C396.080200,325.325806 395.161926,325.654083 394.243652,325.982330 
	C394.178192,325.714020 394.112732,325.445709 394.047272,325.177399 
	C394.815735,325.118286 395.584167,325.059143 396.677551,325.001221 
	C397.002441,325.002441 397.000000,325.000000 396.999237,324.998779 
z"/>
</svg>